<svg width="147" height="147" viewBox="0 0 147 147" fill="none" xmlns="http://www.w3.org/2000/svg">
<path fill-rule="evenodd" clip-rule="evenodd" d="M0.263672 4.30802C0.263672 1.92879 2.19246 0 4.57169 0H30.4198C32.799 0 34.7278 1.92879 34.7278 4.30802C34.7278 6.68725 32.799 8.61604 30.4198 8.61604H8.87971V30.1561C8.87971 32.5354 6.95093 34.4642 4.57169 34.4642C2.19246 34.4642 0.263672 32.5354 0.263672 30.1561V4.30802Z" fill="#196954"/>
<path fill-rule="evenodd" clip-rule="evenodd" d="M142.428 0C144.807 0 146.736 1.92879 146.736 4.30802V30.1561C146.736 32.5354 144.807 34.4642 142.428 34.4642C140.049 34.4642 138.12 32.5354 138.12 30.1561V8.61604H116.58C114.201 8.61604 112.272 6.68725 112.272 4.30802C112.272 1.92879 114.201 0 116.58 0H142.428Z" fill="#196954"/>
<path fill-rule="evenodd" clip-rule="evenodd" d="M4.57169 146.473C2.19246 146.473 0.263672 144.544 0.263672 142.165V116.317C0.263672 113.938 2.19246 112.009 4.57169 112.009C6.95093 112.009 8.87971 113.938 8.87971 116.317V137.857H30.4198C32.799 137.857 34.7278 139.786 34.7278 142.165C34.7278 144.544 32.799 146.473 30.4198 146.473H4.57169Z" fill="#196954"/>
<path fill-rule="evenodd" clip-rule="evenodd" d="M146.736 142.165C146.736 144.544 144.807 146.473 142.428 146.473H116.58C114.201 146.473 112.272 144.544 112.272 142.165C112.272 139.786 114.201 137.857 116.58 137.857H138.12V116.317C138.12 113.938 140.049 112.009 142.428 112.009C144.807 112.009 146.736 113.938 146.736 116.317V142.165Z" fill="#196954"/>
<path d="M119.1 78C119.1 75.1667 123.415 60.3993 127.733 56.0842C132.046 51.769 127.733 47.1138 123.418 47.1138C113.771 47.1138 97.5244 66.6667 97.5244 78C97.5244 92.1667 113.768 107.535 123.418 107.535C127.733 107.535 132.049 103.557 127.733 99.2387C123.418 94.9263 119.1 83.6667 119.1 78Z" fill="#196954"/>
<path d="M53.5594 50.7547C53.5594 42.1244 57.8009 33.4912 62.1161 33.4912C75.0616 33.4912 99.8618 47.1564 104.177 68.735C108.495 90.3137 53.5594 50.7547 53.5594 50.7547ZM67.3124 102.542C71.6276 106.858 80.2608 111.176 88.894 111.176C97.5243 111.176 80.0794 99.3067 84.5788 93.9149C90.7555 86.5 67.3124 102.542 67.3124 102.542Z" fill="#196954"/>
<path d="M33.8679 91.3932C36.0241 84.9191 34.4063 80.2441 30.6294 75.5719C26.8526 70.8941 41.6001 70.1772 46.4536 76.6514C51.3071 83.1256 62.6404 94.4476 52.5679 94.2747C42.5011 94.0906 33.8679 91.3932 33.8679 91.3932Z" fill="black"/>
<path d="M28.4761 76.5493C31.1932 79.0256 48.9412 88.7581 48.7769 91.1041C48.6126 93.4501 42.3197 90.8548 39.9794 90.3136C35.7719 89.3446 34.5819 88.6193 33.4146 88.8233C31.0346 89.7328 31.8449 92.2261 32.7289 93.6513C36.9732 101.046 53.3726 106.86 67.1822 106.86C91.0162 106.86 114.788 85.2845 114.788 76.6513C114.788 68.021 88.3104 46.4395 64.4764 46.4395C40.7019 46.4366 28.5101 63.6123 28.4761 76.5493Z" fill="#AFDFD3"/>
<path d="M47.8332 58.1666C48.5879 58.1495 49.3383 58.2834 50.0405 58.5604C50.7426 58.8373 51.3824 59.2518 51.9222 59.7794C52.462 60.307 52.891 60.9371 53.1839 61.6328C53.4768 62.3284 53.6278 63.0756 53.628 63.8304C53.6282 64.5852 53.4776 65.3325 53.185 66.0283C52.8924 66.7241 52.4638 67.3544 51.9242 67.8823C51.3847 68.4102 50.7451 68.825 50.0431 69.1023C49.3411 69.3795 48.5907 69.5138 47.8361 69.4971C46.3555 69.4644 44.9465 68.8533 43.9109 67.7947C42.8752 66.7362 42.295 65.3142 42.2947 63.8332C42.2943 62.3523 42.8737 60.93 43.9089 59.871C44.944 58.8119 46.3527 58.2001 47.8332 58.1666Z" fill="black"/>
<path d="M70.7268 94.9433C70.239 94.945 69.759 94.8204 69.3337 94.5816C68.9083 94.3428 68.552 93.9979 68.2995 93.5805C68.0471 93.1632 67.907 92.6875 67.8929 92.1999C67.8788 91.7123 67.9913 91.2293 68.2193 90.7981C72.7101 82.2018 74.5036 74.4554 68.6556 64.6096C68.2716 63.9633 68.1601 63.191 68.3455 62.4625C68.531 61.7341 68.9982 61.1091 69.6445 60.7251C70.2907 60.3411 71.063 60.2296 71.7915 60.415C72.52 60.6004 73.145 61.0677 73.529 61.7139C81.1591 74.5631 77.6656 84.9529 73.24 93.4218C73.0004 93.8811 72.6394 94.2658 72.1962 94.5341C71.7531 94.8024 71.2448 94.9439 70.7268 94.9433Z" fill="#0C3A2E"/>
</svg>
