<svg width="147" height="147" viewBox="0 0 147 147" fill="none" xmlns="http://www.w3.org/2000/svg">
<path fill-rule="evenodd" clip-rule="evenodd" d="M0.263672 4.30802C0.263672 1.92879 2.19246 0 4.57169 0H30.4198C32.799 0 34.7278 1.92879 34.7278 4.30802C34.7278 6.68725 32.799 8.61604 30.4198 8.61604H8.87971V30.1561C8.87971 32.5354 6.95093 34.4642 4.57169 34.4642C2.19246 34.4642 0.263672 32.5354 0.263672 30.1561V4.30802Z" fill="#196954"/>
<path fill-rule="evenodd" clip-rule="evenodd" d="M142.428 0C144.807 0 146.736 1.92879 146.736 4.30802V30.1561C146.736 32.5354 144.807 34.4642 142.428 34.4642C140.049 34.4642 138.12 32.5354 138.12 30.1561V8.61604H116.58C114.201 8.61604 112.272 6.68725 112.272 4.30802C112.272 1.92879 114.201 0 116.58 0H142.428Z" fill="#196954"/>
<path fill-rule="evenodd" clip-rule="evenodd" d="M4.57169 146.473C2.19246 146.473 0.263672 144.544 0.263672 142.165V116.317C0.263672 113.938 2.19246 112.009 4.57169 112.009C6.95093 112.009 8.87971 113.938 8.87971 116.317V137.857H30.4198C32.799 137.857 34.7278 139.786 34.7278 142.165C34.7278 144.544 32.799 146.473 30.4198 146.473H4.57169Z" fill="#196954"/>
<path fill-rule="evenodd" clip-rule="evenodd" d="M146.736 142.165C146.736 144.544 144.807 146.473 142.428 146.473H116.58C114.201 146.473 112.272 144.544 112.272 142.165C112.272 139.786 114.201 137.857 116.58 137.857H138.12V116.317C138.12 113.938 140.049 112.009 142.428 112.009C144.807 112.009 146.736 113.938 146.736 116.317V142.165Z" fill="#196954"/>
<path d="M119.946 77.5674C119.946 77.5674 119.556 95.9089 120.669 119.87C120.731 121.449 121.095 123.002 121.742 124.443C121.885 124.756 122.01 125.077 122.117 125.405C122.828 127.58 121.063 129.774 118.679 129.734L107.768 129.553C104.32 129.495 101.522 126.859 101.415 123.564L100.642 99.8485L119.946 77.5674Z" fill="#196954"/>
<path d="M87.6776 31.7299C87.6776 31.7299 69.3361 33.4314 53.5256 51.7997C53.3847 51.9643 53.3107 52.1759 53.3183 52.3924C53.326 52.609 53.4147 52.8148 53.5669 52.969C54.1352 53.5724 54.8533 54.0143 55.648 54.2497C55.648 54.2497 34.2822 62.0117 25.0381 88.1393C25.0381 88.1393 13.9174 118.62 35.3375 128.636C36.7435 129.286 38.2751 129.62 39.8242 129.614H68.1104C69.7089 129.628 71.289 129.272 72.7268 128.574C74.3664 127.79 75.7023 126.489 76.5277 124.87C76.5277 124.87 78.2769 129.613 82.7589 129.613H91.2281C91.8695 129.619 92.5057 129.497 93.0993 129.254C93.693 129.011 94.232 128.652 94.6848 128.198C96.6865 126.141 95.6855 123.567 95.422 121.048C95.1677 118.939 95.0711 116.813 95.1331 114.689V112.838C95.1208 111.773 95.3185 110.715 95.7149 109.727C96.1113 108.738 96.6987 107.837 97.4434 107.075C98.3076 106.216 99.361 105.571 100.519 105.192C100.519 105.192 113.153 101.2 119.365 83.32C120.99 78.5752 121.809 73.5916 121.787 68.5763V64.4152C122.338 64.832 122.841 65.309 123.286 65.8374C123.359 65.9222 123.453 65.9861 123.559 66.0224C123.665 66.0588 123.778 66.0664 123.888 66.0444C123.998 66.0224 124.1 65.9716 124.183 65.8972C124.267 65.8229 124.329 65.7276 124.364 65.6212C125.252 62.8586 127.067 55.2539 123.318 47.5798L87.6776 31.7299Z" fill="#AFDFD3"/>
<path d="M123.316 47.5813L87.6776 31.73C87.6776 31.73 87.4286 31.3159 83.4189 32.561C74.9444 39.6532 75.5754 48.8829 75.5775 49.255C75.5815 50.0008 75.8806 50.7146 76.4093 51.2405C76.9381 51.7664 77.6535 52.0616 78.3993 52.0616C78.5095 52.0616 78.6196 52.0552 78.7291 52.0426L79.7121 51.9269C80.293 56.5673 82.1907 59.2318 82.4471 59.5735C82.7092 59.9229 83.0487 60.2068 83.4391 60.4026C83.8295 60.5985 84.26 60.701 84.6968 60.7022H84.7045C85.1363 60.7022 85.5623 60.6032 85.9498 60.4126C86.3372 60.2221 86.6758 59.9451 86.9394 59.6032C92.1163 67.143 99.0913 68.5507 99.4296 68.6145C99.8878 68.7013 100.36 68.6732 100.805 68.5326C101.25 68.3921 101.653 68.1436 101.978 67.8092L102.048 67.7387L102.098 67.7973C102.444 68.2034 102.899 68.503 103.408 68.6614C103.918 68.8198 104.462 68.8304 104.977 68.6921C105.31 68.6029 112.013 66.726 116.481 59.782C116.746 60.0721 117.068 60.3038 117.427 60.4624C117.786 60.621 118.174 60.7029 118.567 60.703H118.574C119.011 60.7018 119.442 60.5992 119.832 60.4033C120.222 60.2075 120.562 59.9237 120.824 59.5742C121.08 59.2325 122.978 56.568 123.559 51.9276L124.542 52.0433C124.651 52.0559 124.762 52.0623 124.872 52.0623C124.892 52.0623 124.912 52.0602 124.932 52.0599C124.557 50.513 124.015 49.0114 123.316 47.5813Z" fill="#196954"/>
<path d="M118.512 33.1923C119.292 28.5102 118.759 24.9209 117.848 22.3083C116.135 17.3974 109.684 16.2581 106.515 20.3839C105.47 21.783 104.645 23.3339 104.07 24.9826C103.287 24.7975 99.9827 24.7975 99.1997 24.9826C98.624 23.3339 97.7993 21.783 96.7542 20.3839C93.5854 16.257 87.1344 17.3963 85.4213 22.3083C84.5102 24.9209 83.9751 28.5102 84.7575 33.1923C78.352 40.435 78.3989 49.2411 78.3989 49.2411L82.3692 48.7741C82.2521 54.6124 84.7042 57.8817 84.7042 57.8817L87.2731 54.4956C91.8267 64.3034 99.9545 65.8434 99.9545 65.8434L102.184 63.5507L104.244 65.9672C104.244 65.9672 112.474 63.7581 115.996 54.4956L118.565 57.8817C118.565 57.8817 121.017 54.6124 120.901 48.7741L124.87 49.2411C124.87 49.2411 124.917 40.435 118.512 33.1923Z" fill="#AFDFD3"/>
<path d="M89.6611 29.427C90.8699 28.6454 93.0497 27.2648 94.7558 26.3442C94.9997 26.2136 95.1887 26 95.2887 25.742C95.3887 25.484 95.393 25.1988 95.3007 24.9379C95.1709 24.5718 95.0023 24.1267 94.7964 23.6512C93.5304 20.7236 89.1771 21.2231 88.6505 24.3679C88.4133 25.8726 88.3922 27.4035 88.5877 28.9142C88.6006 29.0326 88.6436 29.1458 88.7125 29.243C88.7814 29.3402 88.874 29.4182 88.9815 29.4696C89.0891 29.521 89.2079 29.544 89.3268 29.5366C89.4458 29.5291 89.5608 29.4914 89.6611 29.427Z" fill="#196954"/>
<path d="M114.036 29.1185C112.828 28.3373 110.648 26.9563 108.942 26.0357C108.698 25.9052 108.509 25.6916 108.409 25.4337C108.309 25.1758 108.305 24.8906 108.397 24.6298C108.527 24.2633 108.695 23.8185 108.901 23.3431C110.167 20.4155 114.52 20.9146 115.047 24.0594C115.284 25.5641 115.305 27.095 115.11 28.6057C115.097 28.7241 115.054 28.8373 114.985 28.9345C114.916 29.0318 114.823 29.1097 114.716 29.1611C114.608 29.2125 114.49 29.2355 114.371 29.2281C114.252 29.2206 114.137 29.1829 114.036 29.1185Z" fill="#196954"/>
<path d="M107.309 83.9032L106.257 81.8828C104.896 83.2726 102.532 84.5378 100.948 85.2926C100.474 85.5177 99.9491 85.6134 99.4263 85.57C98.9035 85.5267 98.4015 85.3458 97.9713 85.0457C95.3884 83.2508 92.6901 81.628 89.8939 80.1877C86.996 78.7383 83.9372 77.6357 80.781 76.9028C83.4848 78.7387 86.0043 80.8324 88.3042 83.1544C95.947 90.2568 101.982 92.431 104.696 93.0878C105.164 93.1998 105.651 93.2122 106.124 93.1242C106.598 93.0362 107.047 92.8498 107.444 92.577C113.934 88.1327 118.029 83.2299 120.524 79.363C121.37 75.83 121.794 72.209 121.786 68.5761V64.4153C117.654 77.9951 111.251 82.898 108.802 84.3371C108.676 84.4102 108.537 84.4571 108.392 84.4748C108.248 84.4925 108.102 84.4808 107.962 84.4402C107.823 84.3996 107.693 84.3311 107.58 84.2388C107.468 84.1465 107.376 84.0323 107.309 83.9032Z" fill="#196954"/>
<path d="M96.4138 42.6376C96.1085 42.638 95.8113 42.539 95.5673 42.3554C94.8144 41.8281 93.9804 41.4274 93.0982 41.1692C92.9192 41.1215 92.7513 41.039 92.6041 40.9263C92.457 40.8137 92.3335 40.6732 92.2406 40.5129C92.1477 40.3525 92.0874 40.1754 92.063 39.9917C92.0385 39.8081 92.0505 39.6214 92.0983 39.4423C92.146 39.2633 92.2285 39.0954 92.3412 38.9482C92.4538 38.801 92.5943 38.6775 92.7546 38.5847C93.0785 38.3971 93.4636 38.3459 93.8252 38.4423C95.0558 38.7954 96.2173 39.3554 97.26 40.0984C97.4969 40.276 97.6719 40.5237 97.7602 40.8064C97.8485 41.089 97.8456 41.3923 97.752 41.6732C97.6583 41.9542 97.4787 42.1985 97.2384 42.3716C96.9982 42.5448 96.7096 42.638 96.4135 42.638L96.4138 42.6376Z" fill="#373D4C"/>
<path d="M106.855 42.6375C106.559 42.6375 106.271 42.5443 106.03 42.3712C105.79 42.198 105.611 41.9537 105.517 41.6728C105.423 41.3919 105.42 41.0886 105.509 40.8059C105.597 40.5233 105.772 40.2756 106.009 40.0979C107.052 39.3552 108.213 38.7953 109.444 38.4422C109.805 38.3455 110.19 38.3962 110.514 38.5834C110.838 38.7706 111.075 39.0788 111.171 39.4403C111.268 39.8017 111.217 40.1868 111.03 40.5109C110.843 40.8349 110.535 41.0713 110.173 41.1681C109.29 41.4264 108.456 41.8276 107.702 42.3557C107.458 42.539 107.161 42.6379 106.855 42.6375Z" fill="#373D4C"/>
<path d="M70.305 92.7591C70.0372 91.9713 69.5472 91.2778 68.8941 90.7623L68.8726 90.7454C68.7112 90.617 68.5122 90.5448 68.306 90.5398C68.0997 90.5349 67.8975 90.5974 67.73 90.7178C67.5626 90.8383 67.439 91.0102 67.3782 91.2073C67.3173 91.4044 67.3225 91.616 67.3929 91.8099C68.7438 95.5073 69.6135 99.3632 69.9805 103.283C69.9805 103.283 70.7918 116.84 74.197 127.661C75.179 126.924 75.9765 125.969 76.5267 124.871C73.2291 117.676 72.5 102.965 72.5 102.965C72.129 99.4952 71.3933 96.0744 70.305 92.7591Z" fill="#196954"/>
<path d="M96.3875 98.1496C96.3475 97.9969 96.2524 97.8643 96.1205 97.7776C95.9885 97.6908 95.8291 97.656 95.6731 97.6799C95.517 97.7037 95.3752 97.7845 95.2752 97.9067C95.1752 98.0289 95.124 98.1838 95.1315 98.3415C95.6831 101.946 95.3378 109.276 95.1893 111.886C95.3692 110.072 96.164 108.375 97.4418 107.075C97.7705 106.749 98.1277 106.453 98.5091 106.191L96.3875 98.1496Z" fill="#196954"/>
<path d="M63.4177 108.204H63.3973C63.1509 108.2 62.9097 108.132 62.6978 108.007C62.4858 107.881 62.3105 107.702 62.1892 107.488C61.0122 105.405 58.263 103.3 58.2352 103.279L58.1858 103.239C56.9009 102.157 55.4069 101.351 53.7968 100.871C52.1867 100.392 50.4951 100.249 48.8274 100.452C48.6005 100.492 48.3673 100.476 48.148 100.406C47.9286 100.335 47.7298 100.212 47.5688 100.048C47.4078 99.8828 47.2895 99.6812 47.2242 99.4603C47.1588 99.2393 47.1484 99.0058 47.1939 98.7799C47.3037 98.1721 47.3475 97.5542 47.3248 96.937C45.5143 97.7614 43.8249 98.8294 42.3038 100.111C42.0248 100.357 41.6602 100.482 41.2892 100.461C40.9182 100.439 40.5708 100.272 40.3224 99.9953C40.074 99.7188 39.9447 99.3556 39.9626 98.9844C39.9804 98.6132 40.144 98.2641 40.4178 98.0128C42.6913 96.0684 45.3111 94.5703 48.1399 93.597C48.3343 93.5338 48.5401 93.5136 48.7431 93.5378C48.9461 93.562 49.1414 93.63 49.3155 93.7371C49.4896 93.8442 49.6384 93.9879 49.7515 94.1582C49.8646 94.3284 49.9393 94.5213 49.9705 94.7233C50.1023 95.6544 50.1602 96.5946 50.1437 97.5348H50.2143C53.777 97.5302 57.2288 98.7741 59.9695 101.05C61.2598 102.057 62.4419 103.196 63.4967 104.447C64.8537 103.045 67.2557 101.298 70.5762 101.681C70.7607 101.701 70.9393 101.758 71.1017 101.848C71.2642 101.938 71.4073 102.059 71.5228 102.205C71.6384 102.35 71.7241 102.517 71.7751 102.695C71.8261 102.874 71.8414 103.06 71.8201 103.245C71.7988 103.429 71.7412 103.608 71.6508 103.77C71.5604 103.932 71.4389 104.075 71.2932 104.19C71.1476 104.305 70.9806 104.39 70.802 104.441C70.6233 104.491 70.4364 104.506 70.2521 104.484C66.7481 104.078 64.6466 107.487 64.6258 107.521C64.5003 107.73 64.3231 107.902 64.1115 108.021C63.8998 108.141 63.6608 108.204 63.4177 108.204Z" fill="#196954"/>
<path d="M91.254 85.7261L86.0941 78.5196C76.5462 74.8549 74.7382 72.4849 71.127 64.3385C70.8247 63.6563 70.4717 63.0098 69.7253 63.0059C69.3662 63.0051 69.0203 63.1409 68.7576 63.3857C68.4949 63.6306 68.3351 63.9661 68.3105 64.3244C68.2491 65.3167 67.986 66.2861 67.5374 67.1733C67.5374 67.1733 64.2091 63.7184 65.0158 54.0556C65.0278 53.9078 64.9867 53.7606 64.8998 53.6405C64.813 53.5204 64.6861 53.4353 64.542 53.4005C64.3979 53.3657 64.2461 53.3835 64.114 53.4507C63.9819 53.5179 63.8782 53.6301 63.8214 53.767L63.8147 53.784C63.6684 54.1547 60.3027 62.9466 66.4372 70.4966C66.5595 70.6471 66.7115 70.7708 66.8838 70.8599C67.056 70.9491 67.2448 71.0017 67.4383 71.0146C67.6318 71.0275 67.8258 71.0004 68.0084 70.935C68.1909 70.8695 68.358 70.7671 68.4992 70.6342C68.9491 70.1806 69.3415 69.6734 69.6678 69.1242C70.3465 70.5357 71.1941 71.8597 72.1919 73.0669C74.4862 75.8476 77.3659 78.0877 80.6255 79.6276C84.3343 81.3565 87.8899 83.3966 91.254 85.7261Z" fill="#196954"/>
<path d="M101.635 44.7102C100.657 44.7084 99.6864 44.8747 98.7652 45.2019C97.178 45.768 96.536 47.5027 97.3942 48.8377C98.3357 50.2535 99.634 51.396 101.158 52.1498C101.306 52.2234 101.469 52.2618 101.634 52.2618C101.799 52.2618 101.962 52.2234 102.11 52.1498C103.634 51.3958 104.932 50.2534 105.874 48.8377C106.732 47.5027 106.092 45.769 104.503 45.2019C103.582 44.8748 102.612 44.7085 101.635 44.7102Z" fill="#373D4C"/>
<path d="M75.5663 125.618L71.2212 114.273C71.2212 114.273 71.8105 120.259 66.2079 123.141C64.6484 123.922 62.9254 124.319 61.1816 124.301H39.3615C35.4927 124.314 31.7299 123.037 28.6681 120.672C26.7985 119.195 25.1287 117.481 23.7007 115.574C25.4597 120.847 28.9524 125.651 35.3373 128.636C36.7432 129.286 38.2746 129.62 39.8236 129.614H68.1098C69.7083 129.628 71.2884 129.272 72.7262 128.574C73.9534 127.977 75.0191 127.094 75.8337 125.999L75.5663 125.618Z" fill="#196954"/>
</svg>
