<svg width="147" height="146" viewBox="0 0 147 146" fill="none" xmlns="http://www.w3.org/2000/svg">
<g filter="url(#filter0_d_2020_223)">
<path d="M41.6457 107.571C40.5353 107.459 39.5865 107.222 38.8232 107.028C38.4652 106.937 37.9952 106.818 37.7343 106.784C36.7683 107.526 35.6578 108.893 35.6902 110.033C36.7187 110.43 38.4286 111.17 39.7267 113.156C41.0118 115.178 41.236 117.099 41.3999 118.501C41.4948 119.303 41.5681 119.937 41.8074 120.569C42.1589 121.487 42.1848 122.501 41.8807 123.435C41.691 124.021 41.4624 124.526 41.236 125.017L49.7812 122.322V109.809C49.1904 109.606 48.5996 109.404 48.0692 109.216C45.872 108.429 44.134 107.81 41.6457 107.571Z" fill="#16A062"/>
<path d="M138.188 114.281V101.007C136.898 101.016 135.626 101.085 134.043 101.171L132.303 101.266C131.387 101.316 130.477 101.628 129.424 101.988C127.999 102.48 126.38 103.032 124.435 103.032C122.872 103.032 121.336 102.659 119.911 101.945C117.227 100.636 115.866 98.5837 114.773 96.9385C114.182 96.048 113.671 95.2782 113.024 94.737C111.495 93.454 110.195 92.9947 108.392 92.3608C106.611 91.7312 104.591 91.0196 102.258 89.4542C100.33 88.1583 98.7303 86.9766 97.2166 85.7088V132.381L135.365 118.326C137.055 117.705 138.188 116.08 138.188 114.281Z" fill="#16A062"/>
<path d="M99.1809 45.0807C99.306 45.0893 99.4268 45.1001 99.5475 45.1066C99.5518 44.9707 99.5561 44.8327 99.5604 44.7163C99.6079 43.2263 99.679 40.9752 101.219 38.9677C102.987 36.6174 105.421 35.3754 108.259 35.3754C109.807 35.3754 111.267 35.7355 112.552 36.0525L113.335 36.2422C115.978 36.8438 117.61 38.4093 118.805 39.5499C119.372 40.0933 119.909 40.6065 120.226 40.6841C121.013 40.8739 121.697 41.0377 122.082 41.0377C122.175 41.0377 122.346 41.0377 122.729 40.8825C123.7 40.4857 124.256 39.1467 125.295 36.1818C125.621 35.246 125.964 34.2757 126.35 33.3076C126.699 32.4235 126.777 31.2828 126.856 30.0732C127.018 27.6798 127.238 24.3979 129.946 21.8212C131.878 19.9798 134.069 19.0828 136.637 19.0828C137.17 19.0828 137.679 19.1388 138.188 19.2014V8.62498C138.188 7.25576 137.528 5.95554 136.424 5.14695C135.68 4.60142 134.798 4.31248 133.875 4.31248C133.435 4.31248 132.997 4.37932 132.575 4.513L97.2188 15.6781V44.8651C97.4581 44.9535 97.6974 45.0009 97.9519 45.0117C98.3788 45.0246 98.7885 45.0527 99.1809 45.0807Z" fill="#16A062"/>
<path d="M91.5435 133.465C91.9834 133.614 92.4405 133.688 92.9062 133.688V81.6205C92.0804 80.7537 91.2265 79.8179 90.2907 78.7549C89.1716 77.4805 88.4234 76.2062 87.8197 75.182C87.0995 73.9594 86.6962 73.2996 86.0731 72.8963C85.9868 72.8424 85.9459 72.8295 85.9049 72.8273C85.575 72.8273 84.926 73.0192 84.2985 73.2068C83.16 73.5454 81.7369 73.9701 80.0701 73.9701C78.8389 73.9701 77.6378 73.7351 76.4713 73.2586L75.7231 72.9502C72.3399 71.5638 68.1309 69.8388 66.3132 63.8767C65.1769 60.2111 65.1812 57.1212 66.3154 53.5763C67.1498 50.9177 68.8641 49.5657 69.8883 48.7593C70.1276 48.5674 70.4597 48.3086 70.5244 48.2224L70.561 48.1102C70.6128 47.9291 70.5071 47.3642 70.4101 46.8682C70.1449 45.499 69.7438 43.429 70.712 41.0205C72.3593 37.0185 75.5916 34.9873 80.3202 34.9873C80.814 34.9873 81.3142 35.0067 81.8059 35.0369C84.8527 35.2159 86.7911 36.7339 88.2056 37.8443C88.7253 38.2519 89.2191 38.6378 89.7366 38.944C90.9786 39.6771 91.9963 40.4922 92.9062 41.2965V17.0451L91.606 16.6355L54.0938 4.78471V87.9448C54.4883 87.9362 54.8743 87.9297 55.284 87.9146C56.0883 87.8866 56.9249 87.8586 57.8219 87.8586C58.3157 87.8586 58.8289 87.8672 59.3658 87.8909C59.5598 87.8974 59.7517 87.9017 59.9372 87.9017C60.9334 87.9017 61.8519 87.796 62.8244 87.6861C63.8767 87.5653 64.9656 87.4424 66.1925 87.4424C67.7018 87.4424 69.1487 87.6386 70.6171 88.044C71.1022 88.1777 71.6176 88.2747 72.1631 88.3761C74.3539 88.7879 77.6616 89.4089 80.0248 93.2945C82.8064 97.9714 82.8344 103.726 80.083 108.714C77.3511 113.602 73.0903 113.861 70.2699 114.031C69.5972 114.072 68.9654 114.111 68.3336 114.201C67.525 114.314 66.7164 114.367 65.9316 114.367C62.4406 114.367 59.7992 113.307 57.2505 112.28C56.2112 111.864 55.1848 111.482 54.0981 111.137V120.983L55.3918 121.412L91.5435 133.465Z" fill="#16A062"/>
<path d="M11.0141 71.2942L11.2384 71.3395C14.4684 71.9864 17.0064 73.0041 19.6327 76.0595C21.528 78.2266 21.9355 80.7666 22.2353 82.6189C22.3388 83.2679 22.494 84.2382 22.6622 84.5444C22.977 84.5185 23.5829 84.3503 24.1198 84.2037C25.2174 83.8997 26.5823 83.5223 28.1628 83.4641C29.4889 83.4059 30.705 83.0781 31.9901 82.731C33.5599 82.3084 35.3388 81.8297 37.398 81.8297C38.875 81.8297 40.296 82.069 41.7558 82.5671C44.0306 83.3455 45.5163 84.6004 46.7109 85.6074C47.5281 86.2974 48.1189 86.7955 48.8822 87.1125C49.197 87.2462 49.4903 87.341 49.7835 87.4359V4.79763L11.7645 17.4699C9.99854 18.0586 8.8126 19.7038 8.8126 21.5625V70.9492C9.56514 71.0398 10.2983 71.1605 11.0141 71.2942Z" fill="#16A062"/>
<path d="M8.02763 136.333C9.52406 137.431 11.3181 137.998 13.1293 137.998C13.9983 137.998 14.8737 137.866 15.7211 137.599L54.0226 125.505L90.1808 137.558C91.0648 137.853 91.9855 138 92.9084 138C93.9175 138 94.9288 137.823 95.8883 137.467L136.857 122.374C140.247 121.125 142.5 117.895 142.5 114.281V8.625C142.5 5.87794 141.191 3.29259 138.972 1.66678C137.476 0.571411 135.686 0 133.875 0C133.004 0 132.126 0.133682 131.279 0.401062L92.9062 12.5192L54.5336 0.401062C53.6884 0.133682 52.8151 0 51.9397 0C51.0168 0 50.0961 0.146622 49.2098 0.442032L10.3973 13.3795C6.87619 14.5547 4.5 17.8494 4.5 21.5625V129.375C4.5 132.122 5.80885 134.707 8.02763 136.333ZM97.2188 15.6781L132.575 4.51303C132.997 4.37933 133.435 4.3125 133.875 4.3125C134.798 4.3125 135.68 4.60144 136.424 5.14697C137.528 5.95557 138.188 7.25578 138.188 8.625V19.1992C137.681 19.1389 137.17 19.0807 136.637 19.0807C134.069 19.0807 131.878 19.9777 129.946 21.8213C127.238 24.398 127.02 27.6798 126.856 30.0732C126.777 31.2829 126.699 32.4235 126.35 33.3076C125.962 34.2757 125.621 35.2461 125.295 36.1819C124.256 39.1467 123.7 40.4857 122.729 40.8825C122.346 41.0378 122.175 41.0378 122.082 41.0378C121.694 41.0378 121.013 40.8739 120.226 40.6841C119.909 40.6065 119.372 40.0933 118.805 39.5499C117.61 38.4093 115.976 36.8438 113.335 36.2422L112.552 36.0525C111.265 35.7355 109.807 35.3754 108.259 35.3754C105.423 35.3754 102.989 36.6174 101.219 38.9678C99.679 40.9752 99.61 43.2263 99.5604 44.7163C99.5561 44.8327 99.5518 44.9686 99.5475 45.1066C99.4268 45.1001 99.306 45.0893 99.1809 45.0807C98.7863 45.0505 98.3788 45.0247 97.9519 45.0117C97.6974 45.0009 97.4581 44.9535 97.2188 44.8651V15.6781ZM97.2188 49.2293C97.4236 49.2574 97.6069 49.3134 97.8225 49.3221C98.6246 49.3458 99.3534 49.4407 100.033 49.4407C101.078 49.4407 102.019 49.2207 102.959 48.1987C104.582 46.4499 103.185 43.4851 104.662 41.5617C105.736 40.1343 106.941 39.6901 108.254 39.6901C109.531 39.6901 110.909 40.1062 112.373 40.4512C115.314 41.1218 116.286 44.1708 119.215 44.8823C120.312 45.1454 121.19 45.3567 122.08 45.3567C122.79 45.3567 123.506 45.223 124.353 44.8823C127.993 43.401 128.599 39.2998 130.36 34.8989C131.801 31.2548 130.371 27.3757 132.922 24.9457C134.162 23.7619 135.35 23.3975 136.635 23.3975C137.133 23.3975 137.651 23.4535 138.185 23.5355V96.697C136.299 96.7121 134.472 96.8393 132.064 96.9622C129.056 97.1283 126.9 98.7218 124.433 98.7218C123.605 98.7218 122.742 98.5428 121.8 98.0706C118.917 96.6647 118.38 93.6007 115.795 91.4358C111.892 88.1626 108.793 88.6499 104.662 85.8791C101.583 83.8113 99.4483 82.0884 97.2166 79.8718L97.2188 49.2293ZM97.2188 85.7109C98.7324 86.9788 100.332 88.1626 102.26 89.4563C104.593 91.0218 106.614 91.7333 108.395 92.363C110.197 92.9969 111.497 93.4562 113.026 94.7392C113.673 95.2804 114.182 96.048 114.775 96.9407C115.868 98.5881 117.229 100.639 119.913 101.948C121.339 102.661 122.874 103.034 124.437 103.034C126.382 103.034 128.001 102.48 129.427 101.991C130.479 101.631 131.389 101.318 132.305 101.268L134.043 101.171C135.626 101.085 136.898 101.016 138.188 101.007V114.281C138.188 116.08 137.055 117.705 135.365 118.326L97.2188 132.381V85.7109ZM92.9062 75.1216C91.2955 72.9459 90.6637 70.7293 88.4191 69.276C87.548 68.7111 86.7178 68.5127 85.9071 68.5127C83.9643 68.5127 82.125 69.6533 80.0723 69.6533C79.4491 69.6533 78.8044 69.5477 78.1338 69.2738C74.6902 67.8378 71.7621 66.9494 70.436 62.5938C69.567 59.7907 69.5433 57.643 70.436 54.8593C71.3157 52.0454 73.8924 52.1942 74.7032 49.3199C75.4255 46.8618 73.776 44.9664 74.7032 42.6549C75.846 39.8734 77.957 39.2933 80.3224 39.2933C80.7277 39.2933 81.1396 39.3106 81.5558 39.3365C84.0958 39.4853 85.2386 41.2922 87.5501 42.6549C89.7517 43.953 91.2718 45.7297 92.9062 47.1292V75.1216ZM54.0938 92.2573C55.2646 92.2336 56.4678 92.1711 57.8219 92.1711C58.2618 92.1711 58.7146 92.1797 59.189 92.1991C59.4434 92.2099 59.6914 92.2142 59.9372 92.2142C62.3242 92.2142 64.1505 91.7549 66.1925 91.7549C67.1994 91.7549 68.256 91.867 69.4635 92.1991C72.2451 92.971 74.5544 92.6045 76.3182 95.5025C78.3645 98.9417 78.261 103.088 76.3182 106.611C74.2827 110.256 71.2144 109.428 67.7471 109.93C67.1089 110.016 66.5073 110.057 65.9294 110.057C61.6234 110.057 58.7836 107.843 54.0959 106.624L54.0938 92.2573ZM54.0938 111.14C55.1805 111.485 56.2047 111.866 57.2462 112.282C59.797 113.309 62.4363 114.37 65.9272 114.37C66.7121 114.37 67.5207 114.316 68.3293 114.204C68.9611 114.113 69.595 114.072 70.2656 114.033C73.086 113.863 77.3467 113.604 80.0787 108.716C82.8279 103.729 82.8021 97.9735 80.0205 93.2966C77.6572 89.4089 74.3496 88.7901 72.1588 88.3782C71.6133 88.2769 71.0979 88.1798 70.6128 88.0462C69.1444 87.6408 67.6975 87.4446 66.1882 87.4446C64.9613 87.4446 63.8723 87.5696 62.8201 87.6882C61.8476 87.7982 60.9291 87.9038 59.9329 87.9038C59.7474 87.9038 59.5555 87.8995 59.3615 87.8931C58.8246 87.8693 58.3135 87.8607 57.8176 87.8607C56.9206 87.8607 56.084 87.8909 55.2797 87.9168C54.8722 87.9319 54.484 87.9383 54.0894 87.947V4.78688L91.6017 16.6333L92.9062 17.0408V41.2922C91.9963 40.4879 90.9786 39.6728 89.7366 38.9397C89.2191 38.6335 88.7253 38.2497 88.2056 37.84C86.7911 36.7296 84.8527 35.2116 81.8059 35.0326C81.3121 35.0003 80.8118 34.983 80.3202 34.983C75.5916 34.983 72.3593 37.012 70.712 41.0162C69.746 43.4247 70.1449 45.4947 70.4101 46.8639C70.5071 47.3599 70.6149 47.9248 70.561 48.1059L70.5244 48.2181C70.4597 48.3043 70.1276 48.5631 69.8883 48.755C68.8619 49.5614 67.1477 50.9134 66.3154 53.572C65.1812 57.1191 65.1769 60.2068 66.3132 63.8724C68.1309 69.8345 72.3399 71.5595 75.7231 72.9459L76.4713 73.2543C77.6378 73.7308 78.8389 73.9658 80.0701 73.9658C81.7369 73.9658 83.16 73.5432 84.2985 73.2025C84.926 73.0149 85.575 72.823 85.9049 72.823C85.948 72.8252 85.9868 72.8381 86.0731 72.892C86.6941 73.2952 87.0995 73.9529 87.8197 75.1777C88.4213 76.204 89.1716 77.4762 90.2907 78.7506C91.2265 79.8136 92.0804 80.7494 92.9062 81.6162V133.688C92.4405 133.688 91.9834 133.614 91.5435 133.465L55.3875 121.414L54.0938 120.983V111.14ZM49.7812 122.322L41.2382 125.019C41.4624 124.526 41.6932 124.023 41.8829 123.437C42.1869 122.501 42.1611 121.49 41.8096 120.571C41.5703 119.939 41.4948 119.305 41.4021 118.503C41.2382 117.102 41.0118 115.178 39.7288 113.158C38.4286 111.172 36.7187 110.43 35.6923 110.036C35.66 108.895 36.7704 107.528 37.7364 106.786C37.9973 106.823 38.4674 106.939 38.8253 107.03C39.5887 107.224 40.5374 107.461 41.6479 107.573C44.1362 107.812 45.8741 108.431 48.0713 109.218C48.6018 109.408 49.1926 109.611 49.7834 109.811L49.7812 122.322ZM8.8125 21.5625C8.8125 19.7038 9.99844 18.0586 11.7623 17.4721L49.7812 4.79982V87.4381C49.488 87.3432 49.1969 87.2462 48.8799 87.1147C48.1166 86.7977 47.5258 86.2996 46.7086 85.6096C45.514 84.6026 44.0284 83.3477 41.7535 82.5693C40.2938 82.0733 38.8728 81.8318 37.3958 81.8318C35.3365 81.8318 33.5576 82.3105 31.9879 82.7332C30.7006 83.0803 29.4866 83.4059 28.1605 83.4663C26.58 83.5223 25.2151 83.9018 24.1176 84.2059C23.5807 84.3525 22.9769 84.5207 22.6599 84.5466C22.4918 84.2404 22.3365 83.2701 22.233 82.621C21.9333 80.7688 21.5257 78.2287 19.6304 76.0617C17.0041 73.0063 14.4662 71.9864 11.2361 71.3417L11.0119 71.2964C10.2982 71.1627 9.56288 71.042 8.81035 70.9514L8.8125 21.5625ZM8.8125 75.2833C9.31706 75.3609 9.84103 75.4623 10.3909 75.5679C12.9072 76.0703 14.4856 76.6913 16.3853 78.9015C18.6278 81.4631 17.3232 85.6074 19.7943 87.7723C20.7473 88.5874 21.6616 88.8591 22.5845 88.8591C24.3612 88.8612 26.1682 87.8499 28.3524 87.7723C31.9447 87.6127 34.4158 86.1422 37.3958 86.1422C38.3165 86.1422 39.2868 86.2802 40.3541 86.6446C43.2478 87.6365 44.3561 89.9027 47.2067 91.0886C48.1253 91.4767 48.964 91.7161 49.7791 91.8951V105.247C47.3512 104.382 45.1863 103.58 42.0705 103.28C40.3649 103.11 38.9871 102.461 37.6071 102.461C36.8308 102.461 36.0524 102.668 35.2179 103.28C32.6326 105.208 30.4117 108.718 31.7852 112.138C32.6779 114.391 34.8277 113.544 36.0869 115.469C37.4367 117.591 36.7963 119.53 37.7796 122.106C37.1672 123.995 36.1236 125.323 35.5457 126.818L14.4274 133.487C14.0069 133.621 13.5692 133.688 13.1272 133.688C12.2108 133.688 11.3051 133.392 10.5742 132.855C9.47232 132.044 8.8125 130.744 8.8125 129.375V75.2833Z" fill="#212625"/>
<path d="M23.2462 53.2119C24.7082 53.6604 26.0882 54.0831 27.5803 54.0831C28.9862 54.0831 30.2562 53.7014 31.4702 52.9122C32.8329 52.0131 33.2253 50.9026 33.3159 50.1328C33.5552 48.052 32.0135 46.4176 30.3812 44.6883C29.2902 43.5325 27.6428 41.786 27.9619 40.9558C28.1689 40.4038 28.7943 40.1019 30.0729 39.5909C31.6621 38.9527 34.0684 37.9931 34.5881 35.1253C34.8813 33.534 34.5191 32.0721 33.5423 30.8991C32.1688 29.2539 29.6805 28.3482 26.528 28.3482C23.3152 28.3482 20.1563 29.2754 18.0583 30.8409C14.494 33.575 13.1269 37.5683 13.9959 42.7067C14.8627 47.9485 18.0152 51.5667 23.2462 53.2119ZM20.6609 34.2779C21.9762 33.2947 24.2812 32.6586 26.528 32.6586C28.5096 32.6586 29.812 33.1588 30.2303 33.6591C30.3036 33.7475 30.4308 33.8984 30.3489 34.3491C30.2691 34.7782 29.9371 34.9981 28.473 35.5824C26.9313 36.1991 24.8203 37.0444 23.9298 39.4249C22.6511 42.7735 25.3076 45.5874 27.2482 47.6445C27.7614 48.1879 28.4773 48.9469 28.8331 49.4622C27.701 50.0595 26.4094 49.6692 24.4041 49.0525C20.8636 47.9378 18.8518 45.6327 18.2502 41.993C17.6421 38.4028 18.3925 36.018 20.6609 34.2779Z" fill="#212625"/>
<path d="M10.5763 132.853C11.3073 133.39 12.2129 133.685 13.1293 133.685C13.5692 133.685 14.0069 133.619 14.4295 133.485L35.5478 126.816C36.1279 125.323 37.1693 123.993 37.7817 122.104C36.7985 119.527 37.4389 117.589 36.0891 115.467C34.8298 113.542 32.68 114.389 31.7873 112.136C30.4138 108.716 32.6348 105.203 35.2201 103.278C36.0567 102.666 36.833 102.459 37.6092 102.459C38.9914 102.459 40.3671 103.108 42.0727 103.278C45.1884 103.578 47.3533 104.38 49.7812 105.247V91.8972C48.9662 91.7183 48.1252 91.4789 47.2088 91.0908C44.3604 89.9049 43.25 87.6386 40.3563 86.6468C39.2889 86.2824 38.3186 86.1444 37.3979 86.1444C34.4158 86.1444 31.9469 87.6149 28.3546 87.7745C26.1703 87.8521 24.3634 88.8634 22.5866 88.8612C21.6638 88.8612 20.7495 88.5895 19.7964 87.7745C17.3254 85.6096 18.6299 81.4653 16.3874 78.9037C14.4878 76.6957 12.9094 76.0747 10.393 75.5701C9.84103 75.4644 9.31922 75.3631 8.81466 75.2855V129.375C8.8125 130.744 9.47231 132.044 10.5763 132.853Z" fill="#DFF8EC"/>
<path d="M67.7447 109.93C71.2098 109.428 74.2781 110.256 76.3158 106.612C78.2586 103.086 78.3621 98.9396 76.3158 95.5025C74.5541 92.6023 72.2426 92.9711 69.4611 92.1991C68.2536 91.8671 67.197 91.7549 66.1901 91.7549C64.1481 91.7549 62.3217 92.2142 59.9348 92.2142C59.6911 92.2142 59.441 92.2099 59.1866 92.1991C58.7122 92.1797 58.2594 92.1711 57.8195 92.1711C56.4654 92.1711 55.2622 92.2336 54.0913 92.2573V106.624C58.779 107.841 61.6188 110.057 65.9248 110.057C66.5049 110.057 67.1065 110.016 67.7447 109.93Z" fill="#DFF8EC"/>
<path d="M78.1316 69.276C78.8044 69.5499 79.4469 69.6556 80.0701 69.6556C82.1228 69.6556 83.9621 68.5149 85.9049 68.5149C86.7157 68.5149 87.5458 68.7133 88.4169 69.2782C90.6637 70.7294 91.2955 72.946 92.9062 75.1216V47.1335C91.2697 45.7341 89.7517 43.9552 87.5501 42.6593C85.2386 41.2966 84.0937 39.4896 81.5557 39.3408C81.1396 39.315 80.7256 39.2977 80.3224 39.2977C77.9548 39.2977 75.846 39.8777 74.7032 42.6593C73.776 44.9708 75.4255 46.8661 74.7032 49.3243C73.8924 52.1985 71.3179 52.0519 70.436 54.8637C69.5433 57.6474 69.567 59.795 70.436 62.5981C71.7599 66.9516 74.6903 67.84 78.1316 69.276Z" fill="#DFF8EC"/>
<path d="M115.797 91.4336C118.382 93.5985 118.919 96.6625 121.802 98.0684C122.744 98.5406 123.607 98.7196 124.435 98.7196C126.904 98.7196 129.06 97.1261 132.066 96.9601C134.474 96.8372 136.301 96.71 138.188 96.6949V23.5333C137.653 23.4514 137.137 23.3953 136.637 23.3953C135.352 23.3953 134.166 23.7597 132.924 24.9435C130.371 27.3736 131.801 31.2527 130.362 34.8968C128.601 39.2977 127.993 43.3988 124.355 44.8802C123.508 45.2209 122.792 45.3546 122.082 45.3546C121.192 45.3546 120.314 45.1433 119.217 44.8802C116.291 44.1686 115.316 41.1197 112.375 40.4491C110.911 40.1063 109.533 39.6879 108.257 39.6879C106.943 39.6879 105.738 40.1321 104.664 41.5596C103.187 43.4851 104.584 46.4499 102.961 48.1965C102.019 49.2207 101.081 49.4385 100.035 49.4385C99.3556 49.4385 98.6268 49.3436 97.8247 49.3199C97.6069 49.3113 97.4236 49.2552 97.2209 49.2272V79.8675C99.4526 82.0841 101.587 83.807 104.666 85.8748C108.796 88.6478 111.896 88.1626 115.797 91.4336Z" fill="#DFF8EC"/>
<path d="M24.402 49.0547C26.4073 49.6714 27.6968 50.0638 28.831 49.4644C28.4752 48.9512 27.7593 48.1901 27.2461 47.6467C25.3055 45.5896 22.649 42.7736 23.9276 39.4271C24.8182 37.0466 26.9313 36.2013 28.4709 35.5846C29.935 35.0003 30.267 34.7803 30.3468 34.3512C30.4287 33.9006 30.3015 33.7497 30.2282 33.6612C29.8121 33.1632 28.5075 32.6607 26.5259 32.6607C24.2791 32.6607 21.9762 33.2968 20.6588 34.2801C18.3904 36.0202 17.64 38.4028 18.2481 41.9952C18.8497 45.6349 20.8636 47.9399 24.402 49.0547Z" fill="#DFF8EC"/>
<path opacity="0.2" d="M54.0938 4.78471L92.9062 17.25V133.688L54.0938 120.75V4.78471Z" fill="#5D5340"/>
</g>
<defs>
<filter id="filter0_d_2020_223" x="0.5" y="0" width="146" height="146" filterUnits="userSpaceOnUse" color-interpolation-filters="sRGB">
<feFlood flood-opacity="0" result="BackgroundImageFix"/>
<feColorMatrix in="SourceAlpha" type="matrix" values="0 0 0 0 0 0 0 0 0 0 0 0 0 0 0 0 0 0 127 0" result="hardAlpha"/>
<feOffset dy="4"/>
<feGaussianBlur stdDeviation="2"/>
<feComposite in2="hardAlpha" operator="out"/>
<feColorMatrix type="matrix" values="0 0 0 0 0 0 0 0 0 0 0 0 0 0 0 0 0 0 0.25 0"/>
<feBlend mode="normal" in2="BackgroundImageFix" result="effect1_dropShadow_2020_223"/>
<feBlend mode="normal" in="SourceGraphic" in2="effect1_dropShadow_2020_223" result="shape"/>
</filter>
</defs>
</svg>
