<svg width="199" height="142" viewBox="0 0 199 142" fill="none" xmlns="http://www.w3.org/2000/svg">
<path d="M92.1358 85.9208C92.1358 85.9208 94.7767 97.218 94.7767 113.357V115.17C94.7918 117.413 94.3191 119.632 93.3916 121.674C92.464 123.716 91.1038 125.532 89.4049 126.996C89.2814 127.101 89.1548 127.206 89.0251 127.311C88.667 127.603 88.3786 127.971 88.1809 128.389C87.9832 128.807 87.8813 129.264 87.8825 129.726C87.8825 130.556 88.2122 131.352 88.7991 131.939C89.3861 132.526 90.1822 132.856 91.0123 132.856H93.2672C94.2685 132.855 95.2539 132.606 96.135 132.13C97.016 131.655 97.7653 130.968 98.3155 130.131C98.4483 129.93 98.5945 129.718 98.7507 129.497C102 124.873 103.739 119.357 103.728 113.706V93.8424L92.1358 85.9208Z" fill="#BCDED5"/>
<path d="M139.191 85.4656C140.779 92.4733 143.308 99.2339 146.71 105.563C147.436 106.912 148.511 108.041 149.822 108.832C152.907 110.677 159.025 115.495 160.135 125.111C160.135 125.111 160.225 126.282 159.027 127.628C158.545 128.154 158.274 128.838 158.265 129.551V130.053C158.265 130.797 158.56 131.511 159.087 132.037C159.613 132.563 160.327 132.859 161.071 132.859H164.683C165.861 132.86 166.995 132.412 167.855 131.607C168.715 130.801 169.236 129.699 169.312 128.523C169.514 125.334 169.937 122.428 167.778 117.59C167.05 115.995 166.13 114.496 165.038 113.124C162.895 110.391 158.628 103.612 162.38 96.6852L154.658 80.2295L139.191 85.4656Z" fill="#BCDED5"/>
<path d="M88.6016 16.6595C88.6016 16.6595 86.599 13.7445 82.4323 11.1765C82.0171 10.9211 81.5386 10.7876 81.0512 10.7911C80.5638 10.7946 80.0873 10.935 79.6759 11.1963C79.2645 11.4577 78.9348 11.8294 78.7244 12.269C78.5141 12.7087 78.4316 13.1986 78.4863 13.6829L79.4623 22.3028C79.4623 22.3028 87.1849 20.8012 88.6016 16.6595Z" fill="#196954"/>
<path d="M63.661 33.7813L65.7373 29.0699C67.4587 28.2588 69.0991 27.2862 70.6365 26.1649C70.5324 26.1312 70.4283 26.1012 70.3259 26.06C71.9653 25.0489 73.574 23.9537 74.9282 22.9585C75.3292 22.647 75.7119 22.3501 76.0683 22.0748C76.4069 21.8141 76.7196 21.5651 77.0015 21.3332C79.2106 19.4922 81.8494 18.2398 84.6724 17.6924C85.4791 17.5353 86.2937 17.4224 87.1127 17.3543C87.7022 14.8616 88.6477 12.4668 89.9202 10.2439C90.1785 9.79025 90.5443 9.40703 90.9853 9.12787C91.4264 8.84871 91.9293 8.68215 92.4498 8.64284C92.9704 8.60353 93.4926 8.69266 93.9706 8.90241C94.4486 9.11215 94.8678 9.43609 95.1913 9.84575C96.8636 11.9933 98.3463 14.2821 99.6224 16.6863C100.153 17.6808 100.848 18.5779 101.679 19.3393C116.753 33.1004 122.759 45.4099 122.759 45.4099C124.834 45.1642 127.374 45.9058 128.986 46.4959C130.44 47.0288 131.94 47.4258 133.467 47.6819C145.693 49.7223 153.936 48.2486 153.936 48.2486C152.8 43.5189 152.851 38.5818 154.085 33.8766C155.237 29.2681 158.002 25.2248 161.878 22.4796C162.075 22.3444 162.272 22.2138 162.469 22.0877C169.731 17.4567 180.75 18.9267 186.979 24.8744C190.192 27.9725 192.359 31.9944 193.18 36.381C193.696 38.8058 193.659 41.316 193.07 43.7242C191.184 51.0399 185.093 53.7475 181.713 54.7032C180.936 54.9202 180.267 55.4182 179.836 56.1007C179.405 56.7831 179.243 57.6012 179.381 58.3964C179.485 58.9694 179.643 59.5314 179.851 60.0754C180.542 61.8052 181.768 63.269 183.349 64.2538C186.376 66.211 187.692 68.5429 188.255 70.0291C188.317 70.1878 188.337 70.3598 188.313 70.5285C188.289 70.6971 188.222 70.8568 188.119 70.9921C188.015 71.1273 187.879 71.2336 187.722 71.3006C187.565 71.3676 187.394 71.3931 187.225 71.3746L186.323 71.2767C186.237 71.2681 186.151 71.2865 186.077 71.3295C186.003 71.3725 185.944 71.4379 185.909 71.5163C185.874 71.5946 185.864 71.6821 185.881 71.7662C185.899 71.8503 185.942 71.9267 186.006 71.9847C187.246 73.1291 188.193 74.5537 188.77 76.1393C188.839 76.3226 188.849 76.5228 188.799 76.712C188.748 76.9013 188.641 77.0702 188.49 77.1955C188.34 77.3208 188.154 77.3962 187.959 77.4112C187.764 77.4262 187.569 77.3802 187.401 77.2795L187.273 77.202C187.213 77.1666 187.146 77.1474 187.077 77.1465C187.008 77.1455 186.94 77.1629 186.88 77.1967C186.82 77.2306 186.77 77.2797 186.735 77.3392C186.7 77.3986 186.682 77.4662 186.682 77.5352C186.63 80.6025 184.792 83.465 184.792 83.465C183.673 84.9326 182.754 86.5431 182.061 88.2539C180.322 92.4099 179.435 96.8732 179.454 101.379L179.452 102.563C179.702 106.217 182.128 109.168 183.841 110.817C184.959 111.893 185.676 113.318 185.873 114.857L186.525 119.933C185.93 126.187 179.242 129.392 178.178 125.28C178.324 124.272 178.289 123.246 178.073 122.251C177.089 117.607 174.617 113.676 172.861 111.34C171.964 110.143 170.921 109.063 169.756 108.124C169.187 107.666 168.722 107.153 168.235 106.719C164.612 103.489 163.54 100.413 163.54 100.413C160.084 93.2418 156.681 88.577 154.313 85.9635C152.638 84.1155 149.454 84.1896 147.118 85.0628C143.345 86.5249 139.771 88.4571 136.482 90.8136C127.98 96.7705 119.489 95.9602 119.489 95.9602L118.536 110.422C118.431 112.945 118.306 115.429 118.193 117.54C116.892 125.182 107.401 131.823 107.817 124.968L108.079 124.528C108.966 122.939 109.399 121.135 109.328 119.316C108.874 106.858 104.358 98.721 104.358 98.721C103.264 97.5709 102.101 96.4891 100.874 95.4817L94.0748 89.5573C92.0496 88.2575 90.3774 86.4769 89.2073 84.3741C86.7562 79.449 84.7869 71.5204 84.0674 61.7411C83.297 55.9945 81.3323 52.1634 80.5074 49.7873C79.8364 47.8961 78.4466 46.3459 76.6397 45.4732C73.0672 43.7209 69.8549 41.7791 67.9685 41.0591C67.2094 40.7989 66.5099 40.39 65.9108 39.8563C65.3117 39.3225 64.825 38.6746 64.4793 37.9505C63.5961 36.1495 63.661 33.7813 63.661 33.7813Z" fill="#196954"/>
<path d="M75.9865 22.1631C78.3293 21.4256 81.8997 20.8518 85.6279 22.3039C88.4016 23.3308 90.8935 24.9983 92.9008 27.1706C94.4515 28.9846 96.4457 30.3659 98.689 31.1799C99.7099 31.5313 100.772 31.7487 101.849 31.8266C101.993 31.837 102.131 31.8844 102.251 31.9643C102.371 32.0443 102.468 32.1539 102.533 32.2825C102.597 32.4112 102.628 32.5544 102.621 32.6983C102.614 32.8421 102.569 32.9817 102.492 33.1034C101.988 33.8669 101.329 34.5166 100.559 35.011C100.457 35.0799 100.371 35.1709 100.308 35.2772C100.246 35.3836 100.207 35.5026 100.197 35.6256C100.186 35.7486 100.203 35.8724 100.246 35.9881C100.289 36.1037 100.358 36.2082 100.446 36.294C100.629 36.4686 100.799 36.6559 100.955 36.8545C106.374 43.7292 100.298 50.5856 98.49 52.3571C98.3443 52.4979 98.2554 52.6872 98.24 52.8892C98.2247 53.0913 98.284 53.2919 98.4067 53.4531C99.1396 54.4005 101.128 56.074 106.143 56.4168C106.455 56.4367 106.748 56.5714 106.966 56.7948C107.184 57.0182 107.312 57.3145 107.324 57.6265C107.397 59.9052 106.741 62.1477 105.453 64.0285C104.881 64.8553 104.584 65.8411 104.603 66.8462C104.623 67.8513 104.958 68.8247 105.562 69.6286C105.713 69.8209 105.874 70.0052 106.044 70.1808C107.198 71.3426 108.082 72.7435 108.635 74.2846C110.313 79.1642 111.825 88.901 100.914 95.5292C98.6487 93.6725 96.2691 91.9603 93.789 90.4026C83.0411 83.3701 83.174 61.8748 83.174 61.8748C82.3994 56.1719 81.3259 52.2996 80.4889 49.9206C79.8236 48.0208 78.4361 46.4598 76.6274 45.5765C73.0391 43.8275 69.7223 42.4979 67.8297 41.7783C66.2188 41.1864 64.8918 40.0068 64.1152 38.4765C63.5263 37.1101 63.1522 35.6609 63.0062 34.1802L65.4498 28.6943C68.7899 27.2306 73.2369 24.2906 75.9865 22.1631Z" fill="#AFDFD3"/>
<path d="M66.8897 28.0093C65.5164 28.439 64.2094 29.0572 63.0061 29.8462C61.6319 30.8298 61.527 31.6343 61.2909 32.6362C61.2054 33.0236 61.2194 33.4264 61.3316 33.8069C61.4438 34.1874 61.6506 34.5334 61.9326 34.8124C62.4062 35.2728 63.0275 35.5505 63.6864 35.5962C64.3453 35.6419 64.9991 35.4528 65.5317 35.0623C67.0454 33.9338 68.475 31.7184 66.8897 28.0093Z" fill="#373D4C"/>
<path d="M159.637 82.7602C161.271 84.595 163.023 87.7098 163.871 92.9476C164.617 97.734 166.089 102.379 168.236 106.721C164.607 103.498 163.188 101.018 163.188 101.018C159.722 93.8558 156.166 89.2401 153.793 86.6292C152.971 85.7275 151.898 85.0934 150.711 84.8089C149.525 84.5245 148.281 84.6028 147.139 85.0339L153.374 81.6608C154.389 81.1117 155.56 80.9214 156.696 81.121C157.833 81.3205 158.869 81.8981 159.637 82.7602Z" fill="#AFDFD3"/>
<path d="M123.215 87.6287C123.217 90.0468 123.29 93.1163 123.56 95.8159C122.226 96.0004 120.877 96.054 119.532 95.9758C119.588 92.9867 120.205 90.0347 121.349 87.2726C121.432 87.0636 121.585 86.89 121.782 86.7817C121.979 86.6734 122.208 86.6373 122.429 86.6794C122.65 86.7216 122.849 86.8394 122.993 87.0127C123.136 87.1859 123.215 87.4037 123.215 87.6287Z" fill="#196954"/>
<path d="M80.6621 28.0471C80.7981 28.0472 80.9332 28.025 81.0619 27.9813C81.3741 27.8829 81.6983 27.8276 82.0255 27.8168C82.3568 27.8168 82.6746 27.6852 82.9089 27.4509C83.1432 27.2166 83.2748 26.8989 83.2748 26.5676C83.2748 26.2362 83.1432 25.9185 82.9089 25.6842C82.6746 25.4499 82.3568 25.3183 82.0255 25.3183C81.4264 25.3287 80.8321 25.4283 80.2624 25.614C79.9815 25.7086 79.7434 25.9 79.5907 26.1539C79.4379 26.4079 79.3804 26.7079 79.4285 27.0004C79.4765 27.2928 79.627 27.5587 79.853 27.7504C80.079 27.9422 80.3658 28.0473 80.6621 28.0471Z" fill="#373D4C"/>
<path d="M153.898 48.2079C155.855 53.2466 159.228 55.5041 162.031 56.5085C162.492 56.6729 162.987 56.7181 163.47 56.6397C163.954 56.5614 164.409 56.3622 164.795 56.0605C165.18 55.7589 165.483 55.3646 165.676 54.9144C165.868 54.4643 165.943 53.9728 165.894 53.4857C165.741 51.5214 165.854 49.5453 166.232 47.6116L168.814 45.8722L168.978 44.5372H177.064L179.413 49.6175L180.568 52.7757C179.704 53.2463 178.749 53.5286 177.767 53.6038C176.785 53.679 175.799 53.5455 174.873 53.2121C173.988 52.8625 173.252 52.218 172.788 51.3877C172.571 51.0087 172.242 50.7053 171.847 50.518C171.452 50.3308 171.01 50.2687 170.578 50.34C170.252 50.3786 169.939 50.4899 169.662 50.6656C169.385 50.8413 169.15 51.077 168.976 51.3552C168.234 52.7773 168.589 54.0324 168.717 55.3945C169.024 58.6576 165.827 60.1626 162.548 59.5896C158.124 58.8159 153.826 55.2588 151.789 48.474C153.154 48.3412 153.898 48.2079 153.898 48.2079Z" fill="#196954"/>
<path d="M153.898 48.2079C153.891 48.1771 153.885 48.1471 153.878 48.1163C153.89 48.1277 153.898 48.1426 153.902 48.1589C153.906 48.1753 153.904 48.1923 153.898 48.2079Z" fill="#196954"/>
<path d="M182.059 51.5232C182.975 50.2264 183.485 48.1468 182.326 44.8658C182.326 44.8658 180.027 39.1192 173.417 40.2673C173.417 40.2673 167.526 41.3042 166.232 47.6117C166.232 47.6117 170.09 45.1985 174.235 46.7126C174.967 46.9735 175.594 47.4663 176.02 48.1161C176.447 48.7658 176.65 49.5371 176.598 50.3126C176.578 50.5625 176.482 50.8165 176.465 51.0938C176.458 51.3252 176.505 51.5549 176.602 51.7651C176.803 52.2051 177.13 52.5752 177.542 52.8275C177.955 53.0799 178.433 53.2029 178.916 53.1809C179.533 53.1673 180.138 53.0104 180.683 52.7227C181.229 52.435 181.7 52.0243 182.059 51.5232Z" fill="#AFDFD3"/>
<path d="M96.7071 38.8452C95.3039 39.3867 93.8059 39.6398 92.3026 39.5894C92.248 39.5856 92.1933 39.5966 92.1443 39.6212C92.0953 39.6457 92.0537 39.6829 92.024 39.729C91.9942 39.775 91.9774 39.8282 91.9751 39.8829C91.9728 39.9377 91.9853 39.992 92.0111 40.0404C92.9608 41.8178 94.5396 43.177 96.4385 43.8519C96.4965 43.8715 96.5472 43.9079 96.5844 43.9565C96.6216 44.005 96.6435 44.0636 96.6473 44.1246C96.651 44.1857 96.6366 44.2465 96.6057 44.2993C96.5749 44.3521 96.529 44.3945 96.4739 44.4211C95.4916 44.8792 93.424 45.5109 90.5166 44.6835C90.4631 44.667 90.4062 44.6653 90.3518 44.6785C90.2974 44.6917 90.2477 44.7194 90.2077 44.7585C90.1677 44.7976 90.139 44.8468 90.1246 44.9009C90.1102 44.955 90.1107 45.0119 90.126 45.0657C90.3298 45.7435 90.6198 46.3923 90.9888 46.9963C91.0267 47.0563 91.0429 47.1274 91.0347 47.1979C91.0264 47.2684 90.9942 47.3339 90.9434 47.3835C90.8927 47.433 90.8265 47.4637 90.7558 47.4703C90.6852 47.4769 90.6144 47.4591 90.5553 47.4198C88.7992 46.2053 87.5344 44.4037 86.9887 42.3394C86.9746 42.2852 86.9756 42.2282 86.9915 42.1745C87.0073 42.1208 87.0375 42.0724 87.0787 42.0345C87.1199 41.9967 87.1707 41.9707 87.2255 41.9594C87.2804 41.9481 87.3373 41.9519 87.3901 41.9705C88.4357 42.3407 89.5135 42.6128 90.6095 42.7833C90.6723 42.7921 90.7363 42.7813 90.7929 42.7525C90.8494 42.7237 90.8957 42.6782 90.9256 42.6222C90.9554 42.5662 90.9673 42.5023 90.9597 42.4393C90.9521 42.3763 90.9254 42.3172 90.883 42.2699C89.7254 41.0102 88.9181 39.469 88.5419 37.8C88.5325 37.7505 88.5353 37.6994 88.55 37.6513C88.5648 37.6031 88.5911 37.5592 88.6266 37.5234C88.6621 37.4877 88.7058 37.4611 88.7538 37.446C88.8019 37.431 88.853 37.4278 88.9025 37.4369C91.4474 37.9045 94.0248 38.1726 96.6114 38.2389C96.6847 38.24 96.7554 38.267 96.8108 38.3151C96.8663 38.3632 96.9029 38.4293 96.9144 38.5018C96.9258 38.5743 96.9113 38.6485 96.8734 38.7113C96.8355 38.7741 96.7766 38.8216 96.7071 38.8452Z" fill="#BCDED5"/>
<path d="M182.499 132.948L179.116 132.942C178.482 132.941 177.867 132.724 177.373 132.327C176.879 131.93 176.535 131.376 176.398 130.757C176.309 130.375 176.304 129.979 176.383 129.596C176.462 129.212 176.622 128.85 176.854 128.534C177.214 128.047 177.508 127.513 177.728 126.948C177.94 126.412 178.089 125.853 178.173 125.282C179.246 125.98 180.525 126.127 182.004 125.157C183.967 123.87 185.533 122.061 186.525 119.933L187.244 125.532C187.404 127.267 187.087 129.012 186.325 130.58C185.973 131.292 185.427 131.892 184.751 132.311C184.074 132.729 183.294 132.95 182.499 132.948Z" fill="#AFDFD3"/>
<path d="M104.695 128.567C105.921 127.542 106.976 126.327 107.818 124.969C107.91 124.824 107.992 124.675 108.075 124.526C109.308 125.795 110.891 126.412 112.809 125.155C115.49 123.376 117.41 120.661 118.194 117.54C118.096 119.355 118.006 120.897 117.944 121.945C117.872 123.16 117.583 124.354 117.091 125.468C116.249 127.335 115.153 129.077 113.833 130.643C113.254 131.33 112.532 131.882 111.717 132.259C110.902 132.636 110.013 132.829 109.115 132.824L106.139 132.819C105.828 132.818 105.52 132.757 105.233 132.637C104.946 132.518 104.686 132.343 104.466 132.123C104.247 131.903 104.073 131.642 103.955 131.354C103.836 131.067 103.776 130.759 103.776 130.448V130.437C103.781 130.077 103.865 129.722 104.024 129.398C104.183 129.075 104.412 128.791 104.695 128.567Z" fill="#AFDFD3"/>
<path d="M93.1968 18.0728C92.2192 17.8594 91.2315 17.6954 90.2373 17.5814C90.133 17.5709 90.0322 17.5377 89.9421 17.4841C89.8519 17.4305 89.7745 17.3579 89.7153 17.2714C89.6562 17.1848 89.6166 17.0863 89.5995 16.9828C89.5823 16.8794 89.588 16.7734 89.616 16.6724C90.0683 14.9769 90.6647 13.3233 91.3987 11.7295C91.4563 11.6141 91.5434 11.5162 91.6512 11.4456C91.7591 11.3751 91.8838 11.3345 92.0125 11.328C92.1412 11.3215 92.2693 11.3494 92.3837 11.4087C92.4981 11.4681 92.5946 11.5568 92.6634 11.6657C93.2722 12.6052 94.0293 14.385 94.0118 17.4161C94.0111 17.5163 93.9881 17.615 93.9446 17.7052C93.9011 17.7954 93.838 17.8748 93.76 17.9377C93.682 18.0005 93.591 18.0453 93.4936 18.0686C93.3962 18.092 93.2949 18.0934 93.1968 18.0728Z" fill="#196954"/>
<path d="M25.9964 10.2762C27.4309 10.2762 28.6131 11.356 28.7746 12.7471L28.7934 13.0733V57.8256C28.7934 59.3704 27.5412 60.6226 25.9964 60.6226C24.562 60.6226 23.3798 59.5429 23.2182 58.1518L23.1994 57.8256V13.0733C23.1994 11.5285 24.4516 10.2762 25.9964 10.2762ZM14.8083 18.6673C16.3531 18.6673 17.6054 19.9196 17.6054 21.4643V49.4345C17.6054 50.9793 16.3531 52.2315 14.8083 52.2315C13.2636 52.2315 12.0113 50.9793 12.0113 49.4345V21.4643C12.0113 19.9196 13.2636 18.6673 14.8083 18.6673ZM37.1845 18.6673C38.7293 18.6673 39.9815 19.9196 39.9815 21.4643V49.4345C39.9815 50.9793 38.7293 52.2315 37.1845 52.2315C35.6397 52.2315 34.3875 50.9793 34.3875 49.4345V21.4643C34.3875 19.9196 35.6397 18.6673 37.1845 18.6673ZM3.62026 27.0584C5.165 27.0584 6.41728 28.3106 6.41728 29.8554V41.0435C6.41728 42.5883 5.165 43.8405 3.62026 43.8405C2.07552 43.8405 0.823242 42.5883 0.823242 41.0435V29.8554C0.823242 28.3106 2.07552 27.0584 3.62026 27.0584ZM48.3726 27.0584C49.807 27.0584 50.9892 28.1381 51.1508 29.5292L51.1696 29.8554V41.0435C51.1696 42.5883 49.9174 43.8405 48.3726 43.8405C46.9381 43.8405 45.7559 42.7608 45.5944 41.3697L45.5756 41.0435V29.8554C45.5756 28.3106 46.8278 27.0584 48.3726 27.0584Z" fill="#196954"/>
</svg>
