<svg width="142" height="212" viewBox="0 0 142 212" fill="none" xmlns="http://www.w3.org/2000/svg">
<g clip-path="url(#clip0_2020_837)">
<path d="M89.4446 58.2576C88.459 59.0705 87.2884 59.6061 86.1867 60.2295C87.8639 59.9965 89.448 59.3443 90.8384 58.3896C93.5676 59.0438 96.3362 59.5328 99.108 59.9674C97.4388 61.6923 95.425 63.0146 93.2337 63.9818C96.1475 63.4778 98.6259 61.7974 101.103 60.3104C104.253 60.5298 107.414 60.6341 110.574 60.4985C108.438 63.1993 105.778 65.3759 102.905 67.2399C106.743 65.9109 109.859 63.2107 112.886 60.6141C115.946 60.137 119.028 59.7331 122.108 59.3646C119.7 62.5185 117.017 65.448 113.886 67.8987C117.927 65.8991 121.189 62.7143 124.248 59.4734C126.386 59.0906 128.615 59.4046 130.791 59.2997C129.049 61.8089 126.737 63.7909 124.481 65.8085C126.96 64.4281 129.263 62.7266 131.394 60.8515C133.609 58.1748 137.352 59.9179 140.297 59.4995C136.559 58.3263 132.668 57.5696 128.753 57.4242C125.43 57.8218 124.134 53.8343 121.16 52.9756C122.552 54.3225 123.812 55.7974 125.212 57.131C123.138 56.8073 120.395 58.541 119.033 56.2859C116.148 53.2387 112.901 50.4746 109.161 48.5407C112.553 51.2451 115.767 54.2013 118.364 57.6976C115.826 57.9595 113.286 58.245 110.731 58.215C107.535 54.3942 103.585 51.0841 98.9895 49.0951C102.553 51.615 105.951 54.4914 108.461 58.0979C105.707 58.0769 102.864 58.1722 100.193 57.4339C97.2694 54.9304 94.2833 52.2879 90.5693 51.0149C93.2973 52.8049 96.1006 54.6398 98.0208 57.3432C89.9101 56.3631 81.6053 54.5696 73.4813 56.3037C78.8306 56.6473 84.1927 57.129 89.4446 58.2576ZM148.638 140.923C149.687 134.307 148.951 127.52 147.868 120.945C149.888 123.014 151.484 125.428 152.876 127.952C151.868 124.654 149.86 121.779 147.696 119.145C146.793 115.451 146.089 111.687 145.273 107.965C149.713 110.54 153.485 114.097 156.589 118.165C154.33 113.867 150.858 110.289 147.043 107.328C143.389 105.267 144.031 100.5 142.964 96.9605C148.427 99.1792 152.931 103.063 157.34 106.87C153.87 102.693 149.741 99.0658 145.12 96.2047C140.708 94.3947 141.702 88.8316 140.719 84.9616C146.422 87.2289 151.443 90.8242 156.069 94.7968C151.886 89.4075 145.862 85.9892 140.194 82.411C139.097 79.5707 139.45 76.2697 138.703 73.2808C137.936 77.7663 138.353 82.3658 138.447 86.8833C136.699 90.6116 135.219 94.4803 134.252 98.4911C135.795 95.4238 137.122 92.2348 138.96 89.3167C139.129 91.3565 139.968 93.3957 139.684 95.4316C137.718 99.8775 135.943 104.49 135.346 109.352C136.821 105.411 138.189 101.383 140.505 97.8313C140.954 100.681 141.753 103.47 142.222 106.309C140.363 110.4 138.66 114.682 138.28 119.216C139.4 115.628 140.748 112.086 142.847 108.94C143.379 111.258 143.958 113.562 144.448 115.89C145.92 119.432 142.673 122.639 143.152 126.286C143.72 124.325 144.317 122.363 145.202 120.515C147.014 127.186 148.007 134.055 148.638 140.923ZM75.537 86.4172C74.075 88.2949 72.1909 89.7831 70.2736 91.1677C72.9338 89.9774 75.4405 88.3877 77.5754 86.3992C80.925 86.2742 84.2711 86.0315 87.6252 85.9582C85.9699 88.4142 83.7802 90.4004 81.5588 92.3289C84.7904 90.7869 87.3436 88.2188 90.0557 85.9734C93.233 85.602 96.4637 85.5603 99.6473 85.1258C97.4548 88.8249 94.5616 92.0453 91.4896 95.0302C95.7083 92.3763 98.9832 88.5422 102.398 84.9974C109.095 83.8393 115.859 82.5085 122.13 79.8094C116.945 80.5193 111.769 81.6306 106.531 81.8091C104.749 80.6224 103.082 79.1924 100.944 78.6633C102.449 79.6533 104.038 80.5832 105.124 82.0665C103.015 82.1729 100.91 82.5754 98.8082 82.5581C95.3313 80.3341 91.8354 77.7797 87.6667 77.0732C90.8949 78.5745 93.9798 80.4169 96.6509 82.7863C93.8863 83.0955 91.0849 83.2425 88.3084 83.2329C85.4827 81.5308 82.6403 79.6023 79.3617 78.8572C81.8262 80.1572 84.2539 81.549 86.3931 83.3456C75.5296 83.9526 64.5168 84.6189 54.1058 88.0333C61.2526 87.7489 68.3703 86.6624 75.537 86.4172ZM97.8775 159.498C101.459 153.759 104.098 147.47 106.288 141.079C107.387 143.949 107.5 147.041 107.679 150.064C108.378 146.589 107.866 143.017 106.936 139.639C107.512 136.278 108.885 133.075 109.68 129.748C111.809 133.741 113.18 138.107 113.83 142.578C114.121 137.415 112.22 132.49 110.465 127.729C110.935 124.525 112.043 121.409 112.712 118.223C115.312 122.474 117.171 127.124 118.471 131.918C118.134 126.335 115.758 121.137 113.431 116.148C113.865 113.044 114.852 110.045 115.332 106.944C117.583 110.706 119.197 114.775 120.59 118.913C120.034 114.026 118.036 109.421 115.815 105.082C115.899 102.349 117.007 99.7351 117.088 96.9836C115.135 101.49 113.676 106.199 112.163 110.852C109.663 113.251 106.786 115.302 104.656 118.074C106.883 116.402 109.015 114.569 111.521 113.316C110.681 116.711 109.78 120.098 108.862 123.465C105.724 125.848 102.372 128.078 99.7856 131.113C102.438 129.246 105.064 127.281 108.101 126.061C107.345 129.68 106.358 133.259 105.291 136.794C102.571 138.668 100.288 141.098 98.2963 143.732C100.325 141.997 102.258 140.116 104.6 138.795C102.814 145.835 100.193 152.631 97.8775 159.498ZM54.0705 115.783C53.108 116.475 52.1028 117.104 51.1513 117.81C53.2276 117.568 54.72 115.427 56.8989 115.864C58.9255 116.051 60.9567 116.193 62.9868 116.354C61.2446 118.104 59.1594 119.433 56.9766 120.565C60.0577 119.869 62.7301 118.09 65.3482 116.43C68.4353 116.591 71.5438 116.536 74.6128 116.133C72.8825 118.608 70.4272 120.403 67.9924 122.129C71.3841 120.773 74.4883 118.617 76.881 115.851C78.5018 115.744 80.1027 115.427 81.6905 115.107C81.2661 115.92 80.6627 116.615 80.0177 117.258C81.5199 116.956 82.4512 115.691 83.3545 114.57C88.2722 113.562 93.1645 111.609 97.1117 108.487C94.8288 108.947 92.6998 110.275 90.3404 110.253C86.0803 108.694 81.8146 106.805 77.239 106.413C81.0255 107.721 84.7595 109.19 88.3121 111.055C85.0533 111.906 81.8126 113.014 78.4491 113.301C73.9994 110.393 69.2754 107.408 63.8677 106.786C68.2889 108.374 72.5801 110.501 76.098 113.664C73.2021 113.978 70.2647 114.589 67.3522 114.194C63.6553 112.174 59.9994 109.718 55.7262 109.145C58.9744 110.433 62.0757 112.092 64.856 114.223C61.5625 113.991 58.2458 114.172 54.9559 113.992C53.1998 113.316 51.5999 112.209 49.7171 111.865C50.9341 112.574 52.1561 113.279 53.3355 114.051C48.9506 114.396 44.4877 114.664 40.3027 116.107C44.882 115.81 49.477 115.528 54.0705 115.783ZM55.6453 149.265C54.9909 152.606 52.9903 155.405 50.8288 157.941C53.8619 155.565 56.0753 152.258 57.265 148.605C59.2431 147.505 61.4364 146.771 63.5732 146.002C63.21 150.255 61.2903 154.176 58.6886 157.498C62.2197 154.357 64.3661 149.909 65.2337 145.307C67.0235 144.749 68.7729 144.072 70.5041 143.358C70.5009 147.736 69.333 152.05 67.2162 155.873C70.2461 152.188 71.6438 147.439 72.107 142.751C74.2612 141.937 76.3239 140.912 78.2809 139.702C78.8644 143.852 77.8041 147.999 76.4845 151.9C78.8653 147.995 79.7887 143.372 79.883 138.839C80.9502 137.774 82.1953 136.883 83.2051 135.743C83.6906 137.368 83.9052 139.053 84.2632 140.701C84.4105 138.9 84.175 137.102 84.0177 135.308C84.8364 133.492 86.4859 132.028 86.7005 129.94C86.1703 130.387 85.6552 130.848 85.1446 131.317C81.2784 130.778 77.3542 130.547 73.4492 130.674C76.8398 131.325 80.2509 131.894 83.628 132.617C81.9934 134.269 80.1939 135.933 78.0585 136.87C72.2652 135.468 66.2439 133.808 60.2538 134.915C65.6872 134.972 71.0951 136.068 76.1148 138.169C73.2425 139.693 70.2183 140.986 67.1027 141.898C62.2949 140.607 56.9897 140.134 52.2956 142.093C56.5068 141.14 60.9414 141.422 65.0403 142.762C61.5376 144.185 58.0721 145.703 54.6668 147.326C51.9884 147.425 49.2081 147.619 46.8934 149.164C48.8267 148.691 50.7902 147.946 52.8222 148.271C48.4288 151.456 44.3437 155.086 40.9324 159.32C45.7753 155.893 50.2821 151.898 55.6453 149.265ZM72.4563 156.634C60.9538 161.022 48.0969 159.056 36.6451 163.622C39.5908 153.149 43.796 141.935 53.2151 135.621C62.2461 129.277 73.6434 129.699 84.0317 127.748C87.2921 127.474 88.4453 124.319 89.5437 121.741C92.8685 115.515 98.3278 110.83 103.263 105.916C96.5223 108.927 91.1349 113.963 85.1332 118.123C77.317 123.19 67.5767 126.382 58.253 124.186C51.0982 122.735 45.0756 118.128 37.9202 116.672C42.8397 113.041 47.912 109.464 53.6545 107.253C61.842 104.143 70.7928 104.048 79.4179 104.835C87.91 105.768 96.8403 106.964 105.046 104.005C113.52 96.164 120.522 86.9247 127.72 77.9401C124.065 79.946 120.007 81.1393 116.468 83.3603C112.285 86.0314 109.425 90.3286 105.037 92.7317C94.5927 98.9501 81.6783 98.1801 70.2562 95.4473C62.5305 93.7268 55.4149 90.1181 47.8322 87.9393C51.8575 84.9873 56.1769 82.432 60.6492 80.2134C73.4702 74.0529 88.1969 73.8438 102.097 75.2892C110.116 76.3374 118.23 77.6414 126.309 76.474C127.486 76.2328 129.011 76.543 129.816 75.4567C134.493 69.8098 139.633 64.5803 144.524 59.1216C134.966 61.534 126.655 67.1584 117.222 69.8985C111.052 71.6696 104.491 71.1165 98.3094 69.6682C87.4962 67.3245 77.5099 62.2147 68.2882 56.2196C75.6518 53.9147 82.3517 49.9398 89.748 47.73C102.109 43.7083 115.906 45.6386 127.095 52.1497C132.796 55.535 139.334 57.4781 145.977 57.446C151.364 51.0461 156.351 44.2013 159.862 36.5719C160.97 37.5644 162.038 38.6006 163.156 39.5782C157.716 50.2569 148.915 58.5958 140.99 67.3827C145.131 77.4307 154.21 84.4076 158.417 94.4155C162.028 103.226 162.416 113.325 159.393 122.346C156.567 130.741 151.518 138.14 148.301 146.369C144.868 137.521 139.503 129.61 135.515 121.024C129.987 108.948 128.88 94.2775 134.909 82.1896C136.711 78.1866 137.688 73.8894 138.664 69.6278C132.056 76.3527 126.012 83.5882 120.055 90.8832C120.992 97.1531 122.261 103.394 123.017 109.697C124.111 122.883 122.999 137.098 115.481 148.383C110.015 156.521 102.254 162.76 94.3714 168.434C94.6604 160.23 93.3413 152.071 93.5694 143.871C94.0375 133.29 96.88 122.631 102.999 113.893C106.825 108.268 112.558 104.187 115.858 98.1663C117.076 95.7442 118.629 93.5168 119.969 91.1681C112.555 100.501 103.03 107.832 95.1784 116.745C89.1179 124.155 91.2494 134.483 87.4448 142.821C84.8089 149.376 79.0365 154.288 72.4563 156.634Z" fill="white" fill-opacity="0.4"/>
</g>
<defs>
<clipPath id="clip0_2020_837">
<rect width="120" height="177" fill="white" transform="translate(87.7625 211.289) rotate(-137)"/>
</clipPath>
</defs>
</svg>
