<svg width="172" height="154" viewBox="0 0 172 154" fill="none" xmlns="http://www.w3.org/2000/svg">
<g clip-path="url(#clip0_2020_367)">
<path d="M44.7987 113.895C45.5264 111.338 46.22 108.642 46.8967 106.398C47.4314 104.879 48.0236 103.383 48.6657 101.908C49.0973 101.268 49.5279 101.048 49.9606 101.418C51.6516 102.866 52.4462 105.068 53.6201 106.959C54.9128 109.043 56.7251 110.802 58.8463 112.033C60.6286 113.066 62.8926 113.713 64.7202 112.76C65.9671 112.11 66.7797 110.802 67.0921 109.431C67.5205 107.551 67.0342 105.429 65.6398 104.1C64.4472 102.963 62.7782 102.511 61.1866 102.086C58.7233 101.427 56.141 100.66 54.3902 98.8068C53.0959 97.4364 52.9276 94.4383 53.6993 92.2838C54.078 91.6619 54.4642 91.0433 54.8572 90.429C54.8572 90.429 54.8572 90.429 54.8576 90.4285L54.8572 90.429C57.0434 87.0109 59.4457 83.7155 61.9661 80.5283C64.872 78.2979 68.76 76.1194 70.1552 77.3135C71.8465 78.7601 72.6407 80.963 73.8146 82.854C75.1078 84.9375 76.9196 86.6968 79.0412 87.9272C80.8231 88.9612 83.0872 89.6085 84.9152 88.6549C86.1621 88.0052 86.9742 86.6967 87.2871 85.3252C87.715 83.4465 87.2292 81.3233 85.8348 79.9942C84.6422 78.8582 82.9727 78.4064 81.3812 77.9809C78.9179 77.3225 76.3355 76.5551 74.5847 74.7018C72.8343 72.848 72.0456 69.2658 73.953 67.5724C76.5394 65.3768 79.3283 63.4485 82.3514 61.9991C83.3775 61.5072 84.431 61.0705 85.5126 60.6969C89.2451 59.9039 94.5214 60.2012 95.263 62.2786C96.0111 64.3751 95.6064 66.6821 95.6855 68.9069C95.7723 71.3586 96.4709 73.7854 97.7001 75.9077C98.7329 77.691 100.375 79.3776 102.435 79.4576C103.84 79.5127 105.194 78.7804 106.147 77.7452C107.452 76.3269 108.085 74.2421 107.535 72.396C107.064 70.8168 105.841 69.5958 104.672 68.4354C102.861 66.6397 101.002 64.6907 100.404 62.212C99.8058 59.7366 101.775 58.9078 104.267 58.3853C107.545 58.2536 110.802 58.0558 113.956 57.479C124.62 55.529 134.011 50.71 141.75 37.7133C135.288 48.5658 135.031 61.927 133.535 74.4206C133.04 75.3165 132.314 75.8894 131.153 75.8691C129.125 75.8339 127.546 74.6658 126.093 73.5105C125.154 72.764 124.166 71.9837 122.875 71.8884C121.365 71.7769 119.647 72.68 118.467 74.0119C117.607 74.9837 116.991 76.2305 117.02 77.3738C117.063 79.0491 118.428 80.0876 119.88 80.6072C121.608 81.2258 123.592 81.3529 125.604 80.9731C127.429 80.6285 129.328 79.8722 131.039 80.1011C131.993 80.2283 132.469 81.6343 132.58 83.4111C132.154 87.8993 131.79 92.3881 131.428 96.8577C131.313 98.2743 131.165 99.6944 130.982 101.115C130.295 102.843 129.374 104.117 127.602 103.863C125.594 103.577 124.172 102.223 122.873 100.896C122.034 100.039 121.15 99.1418 119.881 98.8873C118.397 98.5895 116.58 99.2726 115.245 100.448C114.271 101.306 113.504 102.467 113.391 103.605C113.227 105.273 114.453 106.473 115.829 107.168C117.467 107.997 119.42 108.368 121.463 108.241C123.317 108.125 125.294 107.61 126.965 108.049C128.62 108.485 128.249 114.565 127.163 117.664L127.163 117.664C125.111 123.623 122.323 129.305 118.711 134.395C118.711 134.395 118.711 134.395 118.711 134.395C118.711 134.395 118.711 134.396 118.71 134.397C118.547 134.626 118.382 134.855 118.216 135.083C116.443 137.129 112.103 139.211 110.145 138.023C107.965 136.701 106.673 134.337 105.511 132.067C104.761 130.601 103.969 129.064 102.607 128.137C101.015 127.053 98.8367 127.023 97.0896 127.837C95.8145 128.43 94.706 129.499 94.3319 130.855C93.784 132.842 94.8923 134.919 96.2776 136.444C97.9268 138.26 100.027 139.662 102.336 140.488C104.432 141.238 106.752 141.553 108.522 142.902C110.276 144.239 102.742 149.027 96.7729 152.201C96.7737 152.201 96.774 152.201 96.7748 152.201C92.6991 153.921 88.3995 155.109 84.017 155.706C76.3663 156.748 61.1375 152.778 55.1381 157.918C54.6058 158.135 46.0719 138.746 45.4838 136.775C43.2795 129.39 43.2434 121.439 44.7986 113.893C44.7987 113.894 44.7991 113.894 44.7987 113.895Z" fill="#22A987" fill-opacity="0.25"/>
<path d="M106.377 86.0725C108.881 82.7206 111.15 79.2102 113.347 75.651C117.788 68.4552 122.035 61.0223 127.847 54.8141C128.528 54.0874 129.229 53.3803 129.947 52.6921C130.156 52.4926 130.594 53.1097 130.363 53.3316C124.202 59.2314 119.747 66.5679 115.328 73.7909C113.13 77.3847 110.922 80.9774 108.485 84.4162C106.206 87.6322 103.745 90.7177 101.181 93.7112C96.0065 99.7515 90.4174 105.417 84.8938 111.133C79.4482 116.769 74.0398 122.467 69.1899 128.632C64.4102 134.708 60.1891 141.268 57.2161 148.424C56.8218 149.374 56.4519 150.333 56.1021 151.3C55.9684 151.669 55.4546 151.14 55.5516 150.872C58.189 143.584 62.1102 136.86 66.7229 130.651C71.4515 124.285 76.8426 118.447 82.3248 112.73C87.8553 106.962 93.5063 101.305 98.8012 95.3174C101.441 92.3324 103.991 89.2657 106.377 86.0725Z" fill="white"/>
<path d="M66.433 138.631C69.2421 137.377 72.336 137.212 75.364 137.458C78.7859 137.737 82.1815 138.394 85.5689 138.93C87.7367 139.272 89.904 139.615 92.0713 139.958C92.3246 139.998 92.6185 140.68 92.2561 140.623C88.5097 140.03 84.7631 139.438 81.0166 138.845C77.9693 138.364 74.88 137.861 71.7846 138.087C70.0834 138.211 68.4093 138.573 66.8478 139.271C66.5791 139.391 66.1904 138.74 66.433 138.631Z" fill="white"/>
<path d="M94.2948 116.185C92.2312 116.442 90.1877 116.843 88.1781 117.377C87.973 117.431 87.5944 116.781 87.8506 116.713C95.0105 114.809 102.593 114.675 109.822 116.279C111.877 116.735 113.897 117.335 115.869 118.069C116.067 118.143 116.366 118.814 116.089 118.711C109.16 116.134 101.631 115.271 94.2948 116.185Z" fill="white"/>
<path d="M109.436 93.2109C109.193 93.2796 108.823 92.6218 109.125 92.5368C113.811 91.2116 118.565 90.1357 123.364 89.3134C123.621 89.2692 123.975 89.9359 123.676 89.9874C118.876 90.8097 114.123 91.8857 109.436 93.2109Z" fill="white"/>
<path d="M92.8254 92.2306C94.7464 87.2709 94.3473 81.4811 91.6933 76.8652C91.4662 76.4697 91.8191 76.2267 92.0522 76.632C94.8557 81.5087 95.3564 87.5301 93.3208 92.7853C93.2168 93.0544 92.7231 92.495 92.8254 92.2306Z" fill="white"/>
<path d="M65.5164 90.0384C68.2571 92.0041 70.7195 94.3518 72.802 97.0058C74.4787 99.1428 76.2195 101.565 76.7491 104.288C77.0038 105.601 76.9055 106.952 76.2256 108.126C76.0802 108.377 75.6055 107.796 75.7374 107.567C76.9521 105.468 76.1464 102.982 75.06 101.011C73.6103 98.3828 71.6086 95.9786 69.4596 93.8955C68.2053 92.6802 66.8593 91.5638 65.4406 90.5466C65.2026 90.3762 65.1118 89.7486 65.5164 90.0384Z" fill="white"/>
<path d="M49.3033 117.849C52.9868 122.526 55.1225 128.374 55.2988 134.327C55.3478 136 55.2374 137.675 54.9764 139.328C54.9547 139.465 54.7234 139.211 54.7037 139.188C54.6136 139.078 54.4973 138.898 54.5208 138.747C55.4065 133.132 54.4515 127.254 51.8342 122.208C51.0906 120.774 50.2124 119.418 49.2134 118.149C49.0263 117.912 48.9785 117.437 49.3033 117.849Z" fill="white"/>
</g>
<defs>
<clipPath id="clip0_2020_367">
<rect width="120" height="159" fill="white" transform="matrix(-0.743145 -0.669131 -0.669131 0.743145 195.569 80.2957)"/>
</clipPath>
</defs>
</svg>
