<svg width="133" height="195" viewBox="0 0 133 195" fill="none" xmlns="http://www.w3.org/2000/svg">
<g clip-path="url(#clip0_2020_262)">
<path d="M17.0269 44.9367C19.6075 45.5746 22.3261 46.1738 24.5927 46.7717C26.1292 47.2531 27.645 47.7927 29.1411 48.383C29.7966 48.792 30.031 49.2146 29.676 49.66C28.2887 51.4004 26.1154 52.2715 24.2665 53.5106C22.2289 54.8753 20.5345 56.7478 19.3783 58.9107C18.4076 60.728 17.8398 63.0132 18.8561 64.8064C19.5498 66.0299 20.8854 66.7963 22.2665 67.0607C24.1595 67.4233 26.2639 66.8632 27.5436 65.4232C28.6382 64.1916 29.0311 62.5079 29.4007 60.9025C29.9728 58.4177 30.6496 55.8101 32.4406 53.9957C33.765 52.6545 36.7554 52.3816 38.9355 53.0776C39.5702 53.4344 40.2019 53.7988 40.8296 54.1701C40.8296 54.1701 40.8296 54.1701 40.8301 54.1705L40.8296 54.1701C44.3219 56.2356 47.6991 58.5215 50.9724 60.9292C53.3028 63.7554 55.6156 67.565 54.471 69.001C53.0843 70.7418 50.9105 71.6124 49.0615 72.8516C47.0245 74.2167 45.3295 76.0888 44.1739 78.2521C43.2027 80.0689 42.6348 82.3542 43.6517 84.1478C44.3444 85.3714 45.6804 86.1373 47.0621 86.4021C48.9545 86.7642 51.0595 86.2046 52.3391 84.7646C53.4329 83.5331 53.8261 81.8489 54.1958 80.2435C54.7678 77.7587 55.4446 75.1511 57.2357 73.3367C59.0273 71.5227 62.5797 70.6094 64.3387 72.4566C66.6232 74.9648 68.6477 77.6847 70.2017 80.6553C70.7291 81.6637 71.2023 82.7012 71.6134 83.7691C72.5362 87.4717 72.4233 92.7551 70.3729 93.5688C68.3039 94.3896 65.9841 94.0657 63.7634 94.2224C61.3163 94.3948 58.9153 95.1776 56.8372 96.4801C55.0911 97.5745 53.4628 99.2749 53.4547 101.336C53.4487 102.742 54.2279 104.07 55.2956 104.986C56.7586 106.24 58.8643 106.8 60.69 106.186C62.2518 105.661 63.4294 104.395 64.5482 103.187C66.2797 101.315 68.1627 99.3886 70.6189 98.704C73.072 98.0202 73.969 99.9596 74.5782 102.431C74.8242 105.703 75.1355 108.951 75.8221 112.083C78.143 122.672 83.2869 131.89 96.5457 139.17C85.4742 133.091 72.1122 133.3 59.574 132.241C58.6614 131.778 58.0636 131.072 58.0433 129.911C58.0077 127.883 59.12 126.265 60.2239 124.772C60.9371 123.808 61.6825 122.793 61.7326 121.499C61.7914 119.987 60.8289 118.301 59.4566 117.169C58.4555 116.343 57.1878 115.77 56.0463 115.839C54.3735 115.94 53.3833 117.341 52.9146 118.81C52.3568 120.559 52.299 122.547 52.7488 124.544C53.1568 126.356 53.9789 128.227 53.8099 129.945C53.7161 130.903 52.3276 131.427 50.5557 131.6C46.0553 131.332 41.5566 131.125 37.0771 130.918C35.6574 130.853 34.2329 130.755 32.8069 130.622C31.0561 129.996 29.751 129.119 29.9421 127.339C30.158 125.322 31.4621 123.854 32.7425 122.51C33.5704 121.642 34.4357 120.727 34.6457 119.45C34.8915 117.956 34.1455 116.164 32.9239 114.871C32.0327 113.927 30.8456 113.202 29.7043 113.129C28.0318 113.022 26.8755 114.289 26.2283 115.689C25.4577 117.355 25.1543 119.32 25.353 121.357C25.5332 123.206 26.1171 125.164 25.7368 126.849C25.3593 128.518 19.2699 128.359 16.1347 127.383L16.1346 127.383C10.1073 125.54 4.33211 122.951 -0.881626 119.519C-0.881085 119.52 -0.881004 119.52 -0.881004 119.52C-0.881587 119.519 -0.882126 119.519 -0.882751 119.519C-1.11822 119.364 -1.35285 119.207 -1.58615 119.048C-3.69236 117.349 -5.92484 113.084 -4.80573 111.085C-3.5603 108.861 -1.24343 107.486 0.984384 106.246C2.42402 105.445 3.93229 104.6 4.81147 103.207C5.83921 101.578 5.79261 99.3999 4.91863 97.6822C4.28077 96.4287 3.17402 95.3581 1.80589 95.0316C-0.199001 94.5533 -2.23647 95.7335 -3.71226 97.1712C-5.4688 98.8827 -6.7968 101.031 -7.54216 103.367C-8.21875 105.487 -8.452 107.818 -9.73849 109.633C-11.0139 111.433 -16.0617 104.071 -19.4421 98.2161C-19.4418 98.2168 -19.4421 98.2172 -19.4419 98.2179C-21.3034 94.2047 -22.6403 89.9493 -23.3896 85.5902C-24.6982 77.9806 -21.2619 62.6225 -26.6089 56.8061C-26.8438 56.2818 -7.76499 47.0764 -5.81501 46.4198C1.48795 43.9592 9.43306 43.6456 17.0288 44.9365C17.0278 44.9366 17.0274 44.9371 17.0269 44.9367Z" fill="white" fill-opacity="0.4"/>
<path d="M46.9814 105.506C50.4187 107.892 54.0061 110.037 57.6398 112.109C64.9862 116.296 72.5628 120.281 78.97 125.873C79.7201 126.528 80.4512 127.203 81.1641 127.897C81.3707 128.099 80.7693 128.558 80.5394 128.335C74.4283 122.384 66.9408 118.187 59.5679 114.024C55.8996 111.952 52.2321 109.871 48.7102 107.555C45.4167 105.39 42.2472 103.039 39.166 100.58C32.9488 95.6196 27.0918 90.2316 21.1861 84.911C15.3635 79.6654 9.48076 74.4591 3.14996 69.8273C-3.08925 65.2626 -9.79237 61.273 -17.0479 58.5516C-18.0106 58.1906 -18.9822 57.8544 -19.9606 57.5386C-20.3345 57.4179 -19.8235 56.8859 -19.5528 56.9735C-12.1768 59.3549 -5.32034 63.0391 1.04663 67.4323C7.57349 71.9358 13.5964 77.1199 19.5012 82.3992C25.4579 87.725 31.3093 93.1752 37.4777 98.2579C40.5531 100.792 43.7069 103.234 46.9814 105.506Z" fill="#351E33" fill-opacity="0.4"/>
<path d="M-6.93951 67.4211C-5.58743 70.1846 -5.31451 73.2709 -5.45557 76.3057C-5.6143 79.7352 -6.15296 83.1516 -6.56998 86.5558C-6.83648 88.7341 -7.10351 90.9121 -7.3705 93.0901C-7.40126 93.3445 -8.07316 93.6621 -8.02855 93.298C-7.56723 89.5331 -7.10586 85.7682 -6.64449 82.0033C-6.26955 78.941 -5.87488 75.836 -6.20878 72.7504C-6.39217 71.0545 -6.81271 69.3941 -7.56445 67.8579C-7.69364 67.5935 -7.05628 67.1824 -6.93951 67.4211Z" fill="#351E33" fill-opacity="0.4"/>
<path d="M16.4651 94.4825C16.1363 92.4292 15.6649 90.4009 15.0609 88.4111C14.9992 88.2081 15.6358 87.807 15.7128 88.0606C17.8653 95.1497 18.2645 102.723 16.9133 110.004C16.5292 112.073 16 114.113 15.3353 116.109C15.2688 116.31 14.6085 116.632 14.7017 116.352C17.0354 109.337 17.6347 101.783 16.4651 94.4825Z" fill="#351E33" fill-opacity="0.4"/>
<path d="M39.9542 108.813C39.8771 108.573 40.5215 108.18 40.6169 108.478C42.1049 113.116 43.3461 117.829 44.3354 122.597C44.3885 122.851 43.7346 123.229 43.6726 122.932C42.6833 118.164 41.4421 113.451 39.9542 108.813Z" fill="#351E33" fill-opacity="0.4"/>
<path d="M40.3541 92.1781C45.3778 93.9248 51.1501 93.3239 55.6706 90.5104C56.058 90.2696 56.3132 90.6138 55.9162 90.8609C51.1403 93.833 45.1401 94.5434 39.8171 92.6925C39.5445 92.598 40.0863 92.085 40.3541 92.1781Z" fill="#351E33" fill-opacity="0.4"/>
<path d="M41.5918 64.8092C39.723 67.6168 37.4626 70.1597 34.8829 72.3335C32.8058 74.0837 30.4454 75.9081 27.7431 76.5323C26.4397 76.8327 25.0861 76.7816 23.8888 76.1431C23.6328 76.0065 24.1975 75.5119 24.431 75.6356C26.5711 76.7764 29.0271 75.8844 30.9588 74.7299C33.5349 73.1894 35.8679 71.105 37.8747 68.8846C39.0454 67.5886 40.1142 66.2045 41.0813 64.7511C41.2433 64.5074 41.8673 64.3947 41.5918 64.8092Z" fill="#351E33" fill-opacity="0.4"/>
<path d="M13.2322 49.5765C8.68716 53.421 2.91717 55.7594 -3.02664 56.1434C-4.69676 56.2507 -6.37439 56.1988 -8.03562 55.9957C-8.17364 55.9789 -7.92797 55.7388 -7.90482 55.7183C-7.798 55.6244 -7.62301 55.502 -7.47079 55.5201C-1.82831 56.2094 4.01325 55.0498 8.96443 52.2579C10.3711 51.4648 11.6964 50.5398 12.9291 49.4971C13.1601 49.3019 13.6331 49.2375 13.2322 49.5765Z" fill="#351E33" fill-opacity="0.4"/>
</g>
<defs>
<clipPath id="clip0_2020_262">
<rect width="120" height="159" fill="white" transform="matrix(0.642788 -0.766044 -0.766044 -0.642788 55.8674 194.443)"/>
</clipPath>
</defs>
</svg>
