<svg width="182" height="160" viewBox="0 0 182 160" fill="none" xmlns="http://www.w3.org/2000/svg">
<g clip-path="url(#clip0_2020_362)">
<path d="M121.997 86.9055C121.151 85.949 120.574 84.7977 119.913 83.7185C120.204 85.3865 120.911 86.9469 121.914 88.3032C121.355 91.0535 120.963 93.8375 120.626 96.6227C118.844 95.0148 117.452 93.0483 116.409 90.8921C117.014 93.7866 118.78 96.2048 120.353 98.6281C120.243 101.784 120.249 104.947 120.495 108.1C117.722 106.06 115.453 103.477 113.49 100.671C114.952 104.461 117.76 107.481 120.46 110.415C121.044 113.456 121.555 116.522 122.031 119.588C118.795 117.292 115.774 114.712 113.215 111.669C115.355 115.637 118.651 118.787 121.997 121.73C122.454 123.854 122.218 126.092 122.399 128.263C119.83 126.61 117.769 124.369 115.674 122.185C117.14 124.614 118.921 126.856 120.869 128.92C123.621 131.04 122.01 134.842 122.531 137.77C123.573 133.993 124.193 130.079 124.202 126.161C123.689 122.854 127.629 121.419 128.383 118.417C127.085 119.856 125.655 121.166 124.371 122.612C124.623 120.528 122.794 117.847 125 116.407C127.945 113.418 130.594 110.076 132.396 106.271C129.812 109.755 126.97 113.07 123.566 115.787C123.216 113.26 122.842 110.732 122.783 108.178C126.49 104.85 129.66 100.787 131.487 96.1249C129.093 99.7741 126.337 103.271 122.821 105.905C122.746 103.152 122.551 100.314 123.196 97.619C125.596 94.6095 128.132 91.533 129.275 87.7768C127.581 90.5656 125.845 93.4313 123.211 95.4446C123.907 87.3047 125.409 78.9424 123.393 70.8838C123.236 76.2418 122.942 81.6175 121.997 86.9055ZM41.4483 148.948C48.0963 149.765 54.8536 148.793 61.3874 147.482C59.3895 149.572 57.033 151.252 54.5594 152.731C57.8198 151.609 60.6227 149.501 63.1801 147.246C66.8401 146.215 70.5769 145.38 74.2681 144.435C71.8501 148.962 68.4267 152.856 64.4697 156.1C68.6861 153.692 72.1406 150.097 74.9672 146.181C76.8993 142.457 81.6861 142.933 85.1858 141.743C83.1592 147.28 79.4346 151.917 75.7836 156.456C79.8373 152.843 83.3183 148.589 86.0164 143.872C87.6713 139.399 93.2658 140.198 97.099 139.081C95.0322 144.859 91.6143 150.003 87.8055 154.764C93.0456 150.396 96.2516 144.257 99.6297 138.467C102.43 137.271 105.741 137.509 108.702 136.658C104.193 136.049 99.6107 136.626 95.0992 136.878C91.3122 135.26 87.3942 133.916 83.3521 133.09C86.4714 134.525 89.7047 135.739 92.6852 137.475C90.6525 137.715 88.6438 138.624 86.5993 138.412C82.0875 136.602 77.4162 134.989 72.536 134.562C76.5265 135.899 80.5991 137.125 84.2297 139.316C81.3974 139.865 78.6378 140.76 75.8171 141.328C71.6636 139.613 67.3245 138.061 62.7806 137.839C66.4052 138.833 69.9925 140.056 73.209 142.044C70.912 142.657 68.6286 143.316 66.3198 143.887C62.8314 145.481 59.513 142.348 55.8847 142.954C57.8641 143.453 59.8461 143.982 61.7233 144.802C55.1198 146.845 48.29 148.077 41.4483 148.948ZM93.3696 73.9892C91.442 72.5937 89.8889 70.7626 88.4382 68.8948C89.7206 71.5118 91.3969 73.9615 93.4587 76.0257C93.7005 79.369 94.0598 82.7045 94.2501 86.054C91.7379 84.4854 89.6764 82.3664 87.6716 80.2136C89.3254 83.3895 91.981 85.8515 94.3198 88.4835C94.8018 91.646 94.9562 94.8733 95.5016 98.0397C91.7282 95.9776 88.4087 93.1986 85.3185 90.2326C88.118 94.3562 92.064 97.4953 95.7259 100.785C97.117 107.437 98.6831 114.15 101.599 120.323C100.709 115.166 99.4176 110.032 99.0565 104.803C100.18 102.981 101.551 101.265 102.005 99.1097C101.069 100.648 100.195 102.269 98.7501 103.406C98.5702 101.302 98.0945 99.2129 98.0384 97.1116C100.14 93.5591 102.571 89.9762 103.131 85.7854C101.743 89.064 100.01 92.2113 97.7351 94.9635C97.3296 92.2114 97.0849 89.4169 96.9976 86.6417C98.6 83.7583 100.428 80.8503 101.058 77.5478C99.8452 80.0561 98.5389 82.5309 96.8182 84.7315C95.8324 73.8958 94.7821 62.913 91.0065 52.6274C91.5401 59.7599 92.8744 66.8354 93.3696 73.9892ZM21.1133 98.8665C26.9731 102.246 33.3503 104.664 39.8141 106.629C36.9841 107.827 33.8982 108.049 30.8835 108.333C34.3806 108.91 37.9328 108.273 41.276 107.227C44.6555 107.685 47.9041 108.945 51.2567 109.624C47.34 111.891 43.0252 113.413 38.5791 114.219C43.7492 114.33 48.6054 112.258 53.3015 110.337C56.5199 110.696 59.6732 111.695 62.8802 112.252C58.7231 114.999 54.1407 117.018 49.3946 118.485C54.9629 117.954 60.0747 115.397 64.9791 112.898C68.0968 113.223 71.1278 114.105 74.2442 114.476C70.563 116.857 66.5525 118.613 62.4657 120.148C67.3303 119.423 71.8629 117.265 76.1219 114.894C78.8556 114.883 81.507 115.898 84.2596 115.884C79.6876 114.089 74.9311 112.796 70.2275 111.446C67.7435 109.03 65.593 106.227 62.7482 104.196C64.497 106.362 66.4031 108.429 67.7426 110.89C64.3202 110.169 60.9044 109.387 57.5077 108.587C55.016 105.534 52.6711 102.262 49.5473 99.7829C51.5059 102.368 53.5613 104.924 54.8868 107.917C51.2432 107.288 47.6323 106.427 44.0618 105.483C42.0945 102.831 39.5855 100.634 36.8844 98.7348C38.6892 100.702 40.6364 102.568 42.0382 104.862C34.9403 103.323 28.0563 100.941 21.1133 98.8665ZM63.2725 53.5606C62.547 52.6229 61.8835 51.6402 61.1444 50.7139C61.4587 52.7805 63.6508 54.1973 63.2898 56.3901C63.1744 58.422 63.1033 60.4569 63.0134 62.4914C61.2033 60.8113 59.8025 58.7737 58.5946 56.6319C59.3977 59.6868 61.2694 62.2954 63.0196 64.854C62.9664 67.9448 63.1292 71.0495 63.64 74.1026C61.1056 72.4597 59.2257 70.0686 57.4165 67.6955C58.8898 71.0378 61.1531 74.0649 64.0009 76.3596C64.1644 77.9757 64.5365 79.5645 64.9122 81.1402C64.085 80.7445 63.3693 80.1656 62.7034 79.5435C63.0585 81.0342 64.355 81.9208 65.5069 82.7845C66.6861 87.664 68.8083 92.4851 72.066 96.321C71.5271 94.0555 70.1252 91.9741 70.0644 89.6155C71.4743 85.3035 73.2131 80.9745 73.4456 76.3879C72.2707 80.2178 70.9321 84.0009 69.1926 87.6163C68.228 84.3892 67.0081 81.1892 66.6036 77.8377C69.3545 73.2893 72.1734 68.464 72.6056 63.0379C71.1734 67.5118 69.1968 71.8746 66.1591 75.5007C65.7442 72.6175 65.0306 69.7032 65.3244 66.7787C67.214 63.0136 69.5405 59.2742 69.9642 54.9837C68.79 58.2748 67.2403 61.4322 65.2083 64.2851C65.3248 60.9855 65.0282 57.6771 65.0932 54.383C65.708 52.6043 66.7576 50.9668 67.0362 49.0731C66.3699 50.3142 65.7076 51.56 64.9776 52.7656C64.4801 48.3954 64.0567 43.9446 62.4677 39.8125C62.9243 44.3787 63.3674 48.961 63.2725 53.5606ZM29.8657 56.3029C26.5043 55.7655 23.6366 53.8638 21.027 51.7921C23.5074 54.7405 26.8894 56.8372 30.5816 57.8986C31.7505 59.8371 32.56 62.0035 33.4038 64.1122C29.14 63.8976 25.1547 62.1159 21.7437 59.6318C25.006 63.0511 29.5262 65.0409 34.1558 65.7474C34.7763 67.5166 35.5136 69.2413 36.2874 70.9466C31.9122 71.0962 27.56 70.0796 23.6659 68.0974C27.4545 70.9968 32.249 72.228 36.9499 72.5273C37.8386 74.6518 38.9359 76.6774 40.2128 78.591C36.0853 79.319 31.9041 78.4041 27.9592 77.2214C31.9454 79.4645 36.598 80.226 41.1309 80.1621C42.2333 81.1914 43.1672 82.4046 44.3412 83.3741C42.7339 83.916 41.0576 84.1892 39.423 84.6045C41.2288 84.6888 43.0171 84.3908 44.8042 84.171C46.6481 84.9258 48.1681 86.5232 50.2625 86.6648C49.7973 86.1506 49.3189 85.6519 48.832 85.1579C49.2359 81.2752 49.3301 77.3454 49.067 73.4472C48.5346 76.8584 48.0853 80.2873 47.4806 83.6876C45.7725 82.1117 44.0466 80.3713 43.0351 78.2699C44.2345 72.4312 45.6833 66.3556 44.3678 60.4078C44.5001 65.84 43.5936 71.2828 41.669 76.3728C40.0461 73.5553 38.648 70.5781 37.628 67.4963C38.7506 62.6463 39.0378 57.3278 36.9163 52.705C38.0157 56.8803 37.8891 61.3221 36.6931 65.4652C35.1484 62.0143 33.5104 58.6039 31.7691 55.2573C31.577 52.5841 31.286 49.8123 29.6615 47.5528C30.2014 49.4685 31.0142 51.4048 30.7606 53.4468C27.4243 49.1674 23.6541 45.2114 19.3034 41.9499C22.897 46.6703 27.047 51.0349 29.8657 56.3029ZM23.0879 73.3609C18.301 62.0186 19.8169 49.1008 14.8547 37.8153C25.4241 40.3938 36.7776 44.2051 43.4167 53.398C50.0721 62.2021 50.0482 73.6072 52.3604 83.9211C52.7478 87.17 55.9414 88.2124 58.5563 89.2201C64.894 92.3256 69.7671 97.6181 74.8503 102.379C71.6056 95.7472 66.3845 90.5389 62.0184 84.6861C56.6811 77.0515 53.1514 67.4284 55.0207 58.0338C56.2213 50.8327 60.6147 44.653 61.82 37.4512C65.6203 42.241 69.3728 47.1853 71.7823 52.8472C75.1762 60.9211 75.5834 69.8632 75.0988 78.5105C74.4622 87.03 73.5783 95.9966 76.8227 104.094C84.9543 112.29 94.4322 118.964 103.663 125.845C101.53 122.261 100.196 118.248 97.8531 114.789C95.0376 110.702 90.6431 107.993 88.0884 103.692C81.5093 93.4707 81.8281 80.5372 84.1606 69.0268C85.6104 61.2457 88.9686 54.0085 90.8815 46.3544C93.9721 50.2742 96.6766 54.5018 99.05 58.8939C105.654 71.4921 106.377 86.2025 105.418 100.144C104.65 108.195 103.63 116.35 105.079 124.383C105.361 125.551 105.104 127.086 106.218 127.853C112.024 132.329 117.43 137.285 123.056 141.982C120.312 132.514 114.401 124.404 111.333 115.072C109.348 108.968 109.671 102.392 110.903 96.1632C112.868 85.2748 117.626 75.1163 123.296 65.6909C125.856 72.9696 130.063 79.5267 132.529 86.8414C136.98 99.0541 135.532 112.911 129.416 124.32C126.231 130.136 124.517 136.738 124.781 143.375C131.365 148.535 138.38 153.281 146.127 156.524C145.174 157.666 144.176 158.769 143.238 159.92C132.376 154.856 123.735 146.351 114.677 138.738C104.779 143.227 98.1235 152.544 88.2685 157.097C79.5889 161.014 69.5105 161.755 60.3892 159.048C51.9011 156.517 44.3297 151.729 35.9932 148.802C44.7164 145.061 52.4355 139.423 60.8771 135.139C72.7526 129.193 87.3757 127.574 99.6667 133.178C103.73 134.838 108.059 135.665 112.352 136.492C105.4 130.122 97.9584 124.335 90.4599 118.636C84.2265 119.791 78.0333 121.277 71.7606 122.253C58.6215 123.806 44.376 123.191 32.836 116.072C24.5114 110.893 18.0061 103.354 12.06 95.6744C20.2691 95.677 28.377 94.0739 36.5802 94.0157C47.171 94.1143 57.9224 96.5831 66.8693 102.394C72.6237 106.021 76.9026 111.608 83.0347 114.696C85.4979 115.829 87.7781 117.302 90.1722 118.56C80.5863 111.476 72.9272 102.213 63.7459 94.677C56.1285 88.8789 45.8816 91.3695 37.4161 87.8582C30.7729 85.4527 25.662 79.8552 23.0879 73.3609Z" fill="#22A987" fill-opacity="0.25"/>
</g>
<defs>
<clipPath id="clip0_2020_362">
<rect width="120" height="177" fill="white" transform="translate(-31 90.5652) rotate(-49)"/>
</clipPath>
</defs>
</svg>
